<svg width="35" height="33" viewBox="0 0 35 33" fill="none" xmlns="http://www.w3.org/2000/svg">
<path d="M17.5 1.81073C18.1267 1.81074 18.6786 2.19409 19.7823 2.96112L23.6397 5.64178C23.818 5.76569 23.9078 5.82821 24.003 5.88007C24.0979 5.93179 24.1982 5.97332 24.3985 6.05585L28.586 7.78143C29.9359 8.33769 30.6115 8.61542 30.9522 9.1955C31.2928 9.77579 31.2066 10.5013 31.0342 11.9514L30.5499 16.0275C30.5218 16.2633 30.5079 16.3818 30.5079 16.5002C30.5079 16.6185 30.5219 16.7364 30.5499 16.9719L31.0342 21.048C31.2066 22.4981 31.2928 23.2236 30.9522 23.8039C30.6115 24.3842 29.9362 24.6626 28.586 25.2189L24.3985 26.9445C24.1982 27.0271 24.098 27.0685 24.003 27.1203C23.9078 27.1722 23.818 27.2337 23.6397 27.3576L19.7823 30.0383C18.6784 30.8054 18.1267 31.1896 17.5 31.1896C16.8733 31.1896 16.3209 30.8055 15.2168 30.0383L11.3604 27.3576C11.1821 27.2337 11.0922 27.1722 10.9971 27.1203C10.9021 27.0685 10.8019 27.0271 10.6016 26.9445L6.41411 25.2189C5.06389 24.6626 4.38856 24.3842 4.0479 23.8039C3.70727 23.2236 3.79354 22.4981 3.96587 21.048L4.45024 16.9719C4.47823 16.7364 4.49222 16.6185 4.49224 16.5002C4.49224 16.3818 4.47826 16.2633 4.45024 16.0275L3.96587 11.9514C3.79354 10.5013 3.70725 9.77579 4.0479 9.1955C4.38863 8.61543 5.06417 8.33768 6.41411 7.78143L10.6016 6.05585C10.8019 5.97332 10.9022 5.93179 10.9971 5.88007C11.0922 5.82821 11.1821 5.76569 11.3604 5.64178L15.2168 2.96112C16.3209 2.19387 16.8733 1.81073 17.5 1.81073ZM17.5 11.0002C14.2784 11.0002 11.667 13.4626 11.667 16.5002C11.6672 19.5377 14.2785 22.0002 17.5 22.0002C20.7216 22.0002 23.3329 19.5376 23.3331 16.5002C23.3331 13.4626 20.7217 11.0002 17.5 11.0002Z" fill="#D7E3F7"/>
</svg>
