<svg width="63" height="51" viewBox="0 0 63 51" fill="none" xmlns="http://www.w3.org/2000/svg">
<path d="M30.8 29.2L30.28 29.44L29.64 29.64L29 29.92C28.8933 29.9467 28.8267 29.92 28.8 29.84L28.24 30.04L27.6 30.28C27.4933 30.3333 27.4133 30.3067 27.36 30.2C27.3333 30.0933 27.3733 30.0133 27.48 29.96L27.96 29.76C27.96 29.7067 28.0533 29.6533 28.24 29.6L28.48 29.52L28.12 29.6L27.52 29.8L26.88 30.04C26.7733 30.0933 26.7067 30.0667 26.68 29.96L26.04 30.16C25.9333 30.2133 25.8667 30.1867 25.84 30.08C25.8133 30 25.8133 29.9467 25.84 29.92L25.36 30.12C25.2533 30.1733 25.1733 30.1467 25.12 30.04C25.0933 29.96 25.0933 29.8933 25.12 29.84L24.68 30.04C24.6 30.0933 24.5333 30.08 24.48 30L24 30.16C23.8667 30.2133 23.7867 30.1867 23.76 30.08C23.76 30.0533 23.76 30.04 23.76 30.04L23.24 30.16C23.1067 30.2133 23.0267 30.1733 23 30.04C22.9733 29.9333 23.0133 29.8667 23.12 29.84L23.8 29.64L24.44 29.36C24.3867 29.36 24.3467 29.3467 24.32 29.32L23.76 29.52L23.16 29.72L22.48 30C22.3733 30.0533 22.2933 30.0267 22.24 29.92C22.1867 29.8133 22.2133 29.7333 22.32 29.68L23 29.36C23.0267 29.36 23.04 29.36 23.04 29.36L23.76 29.16C23.68 29.1067 23.5867 29.08 23.48 29.08C23.48 29.08 23.4667 29.08 23.44 29.08L22.8 29.28L22.08 29.48L21.4 29.64C21.2667 29.6933 21.1867 29.6533 21.16 29.52C21.1333 29.4133 21.1733 29.3467 21.28 29.32L22 29.12L22.68 28.92L23.28 28.76C23.2 28.68 23.12 28.6 23.04 28.52C22.9867 28.44 22.92 28.36 22.84 28.28L22.16 28.56L21.6 28.76L20.96 29.04C20.8533 29.0933 20.7733 29.0667 20.72 28.96C20.6667 28.8533 20.6933 28.7733 20.8 28.72L21.44 28.44C21.44 28.44 21.44 28.4267 21.44 28.4C21.4667 28.4 21.48 28.4 21.48 28.4L22.04 28.24L22.76 27.92C22.7067 27.7867 22.6533 27.6933 22.6 27.64C22.5733 27.64 22.56 27.64 22.56 27.64L21.92 27.84L21.24 28.04L20.64 28.2C20.5333 28.2533 20.4533 28.2133 20.4 28.08C20.3733 27.9733 20.4133 27.9067 20.52 27.88L21.16 27.68L21.84 27.48L22.52 27.28C22.52 27.28 22.52 27.2667 22.52 27.24C22.4667 27.1067 22.4 27 22.32 26.92L21.72 27.2L21.04 27.48L20.4 27.68C20.2933 27.7333 20.2267 27.7067 20.2 27.6C20.1467 27.4667 20.1733 27.3867 20.28 27.36L20.92 27.12L21.6 26.88L22.24 26.56C22.1867 26.3733 22.12 26.24 22.04 26.16L21.36 26.48C21.3333 26.48 21.32 26.48 21.32 26.48L20.72 26.68L20.04 26.84C19.9333 26.8667 19.8667 26.8267 19.84 26.72C19.8133 26.6133 19.8533 26.5467 19.96 26.52L20.6 26.32L21.2 26.12L21.92 25.84C21.92 25.84 21.9333 25.8267 21.96 25.8C21.9067 25.6667 21.8 25.6 21.64 25.6L21.08 25.84L20.36 26.08L19.68 26.32C19.5467 26.3467 19.4667 26.3067 19.44 26.2C19.4133 26.0933 19.4533 26.0267 19.56 26L20.24 25.76L20.96 25.48L21.72 25.2C21.6667 25.0667 21.6 24.9733 21.52 24.92L20.92 25.24L20.2 25.48L19.56 25.68C19.4267 25.7067 19.3467 25.6667 19.32 25.56C19.2933 25.4533 19.3333 25.3733 19.44 25.32L20.08 25.16L20.76 24.88L21.44 24.56C21.4133 24.48 21.3733 24.4 21.32 24.32C21.2933 24.24 21.2533 24.1733 21.2 24.12L20.56 24.44L19.96 24.68L19.32 24.96C19.2133 25.0133 19.1333 24.9733 19.08 24.84C19.0267 24.7333 19.0667 24.6667 19.2 24.64L19.8 24.36L20.4 24.08L21.04 23.8C21.0667 23.7733 21.08 23.76 21.08 23.76C21.0533 23.68 21.0133 23.5733 20.96 23.44L20.24 23.68L19.56 23.92L19.2 24.12C19.0667 24.4933 18.9333 24.8667 18.8 25.24C18.6933 25.6133 18.56 25.9867 18.4 26.36C18.24 26.8133 18.08 27.2533 17.92 27.68C17.8667 27.8133 17.8133 27.9467 17.76 28.08C17.7333 28.1867 17.68 28.3067 17.6 28.44C17.4933 28.6267 17.3733 28.8133 17.24 29C17.1067 29.16 16.9467 29.3067 16.76 29.44C16.4667 29.6267 16.16 29.7333 15.84 29.76C15.52 29.7867 15.1867 29.7867 14.84 29.76C14.76 29.76 14.7067 29.76 14.68 29.76C14.28 29.76 13.9067 29.7467 13.56 29.72L13.28 29.88L12.56 30.16C12.4533 30.2133 12.3733 30.1867 12.32 30.08L12.12 30.2C12.0133 30.2533 11.92 30.2267 11.84 30.12C11.7867 30.0133 11.8133 29.9333 11.92 29.88L12.32 29.68C12.2667 29.68 12.2 29.68 12.12 29.68L11.84 29.8L11.2 29.96C11.12 30.0133 11.0533 29.9867 11 29.88L10.44 30.08C10.3333 30.1333 10.2667 30.1067 10.24 30C10.2133 29.9733 10.2 29.96 10.2 29.96L9.68 30.16C9.54667 30.2133 9.46667 30.1867 9.44 30.08C9.41333 30.0533 9.37333 30.04 9.32 30.04C9.21333 30.0933 9.13333 30.0667 9.08 29.96L8.44 30.12C8.33333 30.1733 8.26667 30.1333 8.24 30C8.24 29.9733 8.24 29.96 8.24 29.96L7.72 30.12C7.61333 30.1733 7.53333 30.1467 7.48 30.04C7.45333 29.9333 7.48 29.8533 7.56 29.8L7 30C6.89333 30.0533 6.81333 30.0267 6.76 29.92C6.73333 29.84 6.74667 29.7733 6.8 29.72C6.77333 29.6133 6.81333 29.5467 6.92 29.52L7.64 29.32L8.16 29.16C8.10667 29.1333 8.05333 29.12 8 29.12L7.32 29.32L6.76 29.52L6.16 29.72C6.05333 29.7467 5.98667 29.7067 5.96 29.6C5.90667 29.4667 5.94667 29.3867 6.08 29.36L6.64 29.16L7.24 29L7.8 28.8C7.74667 28.6933 7.69333 28.5867 7.64 28.48L7.32 28.6L6.6 28.84L5.92 29.12L5.32 29.44C5.24 29.4933 5.16 29.4667 5.08 29.36C5.02667 29.2533 5.05333 29.1733 5.16 29.12L5.76 28.8L6.48 28.48L7.2 28.28L7.52 28.16C7.46667 28.0267 7.41333 27.8667 7.36 27.68L7 27.8L6.32 27.96L5.72 28.28C5.69333 28.28 5.68 28.28 5.68 28.28L5.04 28.48C4.93333 28.5333 4.85333 28.5067 4.8 28.4C4.77333 28.2667 4.81333 28.1867 4.92 28.16L5.56 27.92L6.16 27.64C6.16 27.64 6.17333 27.64 6.2 27.64C6.2 27.6133 6.2 27.6 6.2 27.6L6.92 27.44L7.28 27.32C7.28 27.2133 7.26667 27.0933 7.24 26.96L7 27.04L6.28 27.28L5.72 27.52C5.69333 27.5467 5.69333 27.56 5.72 27.56L5.08 27.72C4.97333 27.7467 4.89333 27.7067 4.84 27.6C4.81333 27.4933 4.85333 27.4267 4.96 27.4L5.6 27.2L6.16 26.96C6.16 26.96 6.16 26.9467 6.16 26.92L6.88 26.72L7.2 26.6C7.17333 26.44 7.14667 26.3067 7.12 26.2L6.88 26.32L6.28 26.6C6.25333 26.6267 6.24 26.64 6.24 26.64L5.56 26.84L4.84 27.04C4.73333 27.0667 4.66667 27.0267 4.64 26.92C4.61333 26.7867 4.65333 26.7067 4.76 26.68L5.44 26.52L6.12 26.28L6.72 26L7.04 25.84C7.01333 25.68 6.98667 25.5333 6.96 25.4L6.64 25.52L6.04 25.72L5.44 26L4.8 26.2C4.69333 26.2267 4.62667 26.1867 4.6 26.08C4.57333 25.9467 4.61333 25.8667 4.72 25.84L5.32 25.64L5.88 25.4C5.90667 25.4 5.92 25.4 5.92 25.4L6.52 25.16L6.88 25.04C6.85333 24.9333 6.82667 24.8 6.8 24.64L6.6 24.72L6 25.04L5.32 25.32L4.68 25.56C4.57333 25.6133 4.49333 25.5867 4.44 25.48C4.38667 25.3467 4.42667 25.2667 4.56 25.24L5.2 24.96L5.84 24.72L6.44 24.4L6.72 24.28C6.72 24.2267 6.70667 24.1733 6.68 24.12C6.65333 24.04 6.58667 23.9867 6.48 23.96L5.84 24.28L5.16 24.56C5.13333 24.56 5.12 24.56 5.12 24.56L4.56 24.76C4.45333 24.7867 4.37333 24.7467 4.32 24.64C4.29333 24.5333 4.33333 24.4533 4.44 24.4L5 24.24L5.72 23.92L6.32 23.64C6.34667 23.6133 6.36 23.6 6.36 23.6L6.56 23.56C6.53333 23.4 6.49333 23.2933 6.44 23.24C6.44 23.24 6.44 23.2533 6.44 23.28L5.8 23.48L5.12 23.68L4.56 23.96C4.45333 24.04 4.37333 24.0267 4.32 23.92C4.24 23.8133 4.25333 23.72 4.36 23.64L4.96 23.36C4.96 23.36 4.97333 23.36 5 23.36C5 23.3333 5 23.32 5 23.32L5.68 23.16L6.4 22.88C6.34667 22.72 6.29333 22.5467 6.24 22.36L5.64 22.6L5.04 22.88L4.4 23.04C4.29333 23.0933 4.22667 23.0533 4.2 22.92C4.14667 22.8133 4.18667 22.7467 4.32 22.72L4.92 22.52L5.48 22.28L6.12 22.04C6.09333 21.96 6.08 21.8667 6.08 21.76L5.6 21.96L5 22.2L4.32 22.44C4.18667 22.4667 4.10667 22.4267 4.08 22.32C4.05333 22.2133 4.09333 22.1333 4.2 22.08L4.88 21.88L5.44 21.6C5.46667 21.6 5.48 21.6 5.48 21.6L6 21.44C5.94667 21.2533 5.90667 21.0667 5.88 20.88L5.4 21L4.8 21.2L4.12 21.4C3.98667 21.4267 3.90667 21.3867 3.88 21.28C3.85333 21.1467 3.89333 21.0667 4 21.04L4.72 20.84L5.28 20.68L5.8 20.52C5.8 20.3867 5.78667 20.2533 5.76 20.12L5.32 20.32L4.72 20.56L4.12 20.8C4.01333 20.8533 3.93333 20.8267 3.88 20.72C3.85333 20.6133 3.89333 20.5333 4 20.48L4.56 20.2C4.58667 20.2 4.6 20.2 4.6 20.2L5.2 20L5.72 19.76C5.69333 19.6533 5.66667 19.52 5.64 19.36L5.2 19.52L4.6 19.76L3.88 20C3.77333 20.0267 3.70667 19.9867 3.68 19.88C3.62667 19.7733 3.65333 19.7067 3.76 19.68L4.48 19.44L5.08 19.16L5.6 19C5.6 18.8933 5.58667 18.8 5.56 18.72L5.2 18.84L4.52 19.12L3.92 19.36C3.78667 19.3867 3.70667 19.3467 3.68 19.24C3.62667 19.1333 3.65333 19.0533 3.76 19L4.4 18.8L5.04 18.52L5.52 18.36C5.49333 18.1733 5.46667 18 5.44 17.84L5.04 18L4.4 18.28L3.76 18.56C3.65333 18.6133 3.57333 18.5867 3.52 18.48C3.46667 18.3733 3.49333 18.2933 3.6 18.24L4.28 17.92L4.88 17.68C4.88 17.68 4.89333 17.68 4.92 17.68L5.36 17.48C5.33333 17.32 5.30667 17.1733 5.28 17.04L4.84 17.24L4.28 17.48L3.68 17.8C3.57333 17.8533 3.49333 17.8267 3.44 17.72C3.38667 17.6133 3.41333 17.5333 3.52 17.48L4.12 17.16L4.68 16.92L5.2 16.68C5.17333 16.5733 5.13333 16.4667 5.08 16.36L4.72 16.52L4.16 16.72L3.44 16.96C3.33333 16.9867 3.25333 16.9467 3.2 16.84C3.17333 16.7333 3.21333 16.6533 3.32 16.6L4.04 16.4L4.6 16.16L5 16C5 16 4.98667 15.9867 4.96 15.96C4.96 15.9333 4.96 15.92 4.96 15.92C4.93333 15.8133 4.90667 15.6933 4.88 15.56L4.52 15.68L3.8 16L3.08 16.2C2.97333 16.2267 2.90667 16.1733 2.88 16.04C2.82667 15.9333 2.86667 15.8667 3 15.84L3.68 15.64L4.36 15.36L4.8 15.2C4.8 15.12 4.78667 15.0267 4.76 14.92L4.56 15.04L3.88 15.32L3.24 15.6C3.13333 15.6533 3.05333 15.6267 3 15.52C2.94667 15.4133 2.97333 15.3333 3.08 15.28L3.76 14.96L4.4 14.72L4.72 14.56C4.69333 14.4267 4.68 14.2667 4.68 14.08L4.28 14.24L3.68 14.52L3.04 14.84C2.93333 14.8933 2.85333 14.8667 2.8 14.76C2.74667 14.6533 2.77333 14.5733 2.88 14.52L3.52 14.2L4.12 13.88C4.12 13.9067 4.13333 13.9067 4.16 13.88L4.64 13.72C4.61333 13.64 4.6 13.5067 4.6 13.32L4.32 13.4L3 13.88C2.89333 13.9067 2.81333 13.8667 2.76 13.76C2.73333 13.6533 2.77333 13.5733 2.88 13.52L3.56 13.28L4.2 13.08L4.56 12.92C4.53333 12.7333 4.50667 12.5733 4.48 12.44L4.04 12.6L3.4 12.84L2.72 13.12C2.61333 13.1733 2.54667 13.1467 2.52 13.04C2.46667 12.9333 2.49333 12.8533 2.6 12.8L3.24 12.48C3.24 12.5067 3.24 12.5067 3.24 12.48C3.24 12.48 3.25333 12.48 3.28 12.48L3.92 12.28L4.44 12.08C4.44 11.9733 4.42667 11.8667 4.4 11.76L4.12 11.92L3.48 12.2L2.76 12.4C2.65333 12.4267 2.58667 12.3867 2.56 12.28C2.53333 12.1733 2.57333 12.0933 2.68 12.04L3.36 11.88L3.96 11.6L4.36 11.4C4.36 11.3733 4.34667 11.36 4.32 11.36C4.32 11.3333 4.32 11.3067 4.32 11.28C4.32 11.1733 4.30667 11.0667 4.28 10.96L4.08 11.04L3.44 11.36L2.76 11.68C2.65333 11.7067 2.57333 11.6667 2.52 11.56C2.46667 11.4533 2.49333 11.3733 2.6 11.32L3.32 11.04L3.92 10.72L4.24 10.6C4.21333 10.4933 4.18667 10.36 4.16 10.2L3.76 10.36L3.04 10.6L2.48 10.84C2.37333 10.8933 2.29333 10.8667 2.24 10.76C2.18667 10.6533 2.21333 10.5733 2.32 10.52L2.92 10.28C2.92 10.28 2.92 10.2667 2.92 10.24C2.94667 10.24 2.96 10.24 2.96 10.24L3.64 10.04L4.12 9.84C4.09333 9.65333 4.06667 9.49333 4.04 9.36L3.76 9.48L3.12 9.68L2.48 9.84C2.37333 9.86667 2.29333 9.82667 2.24 9.72C2.21333 9.61333 2.25333 9.54667 2.36 9.52L3.04 9.32L3.64 9.12L4 9C4 8.89333 3.98667 8.78667 3.96 8.68L3.68 8.76L3.04 9.08L2.32 9.4C2.21333 9.45333 2.14667 9.41333 2.12 9.28C2.06667 9.17333 2.09333 9.09333 2.2 9.04L2.88 8.76L3.52 8.44L3.92 8.28C3.89333 8.17333 3.88 8.05333 3.88 7.92L3.52 8.08L2.84 8.4L2.2 8.64C2.06667 8.69333 1.98667 8.66667 1.96 8.56C1.90667 8.45333 1.93333 8.37333 2.04 8.32L2.72 8.08L3.36 7.76L3.8 7.56C3.8 7.53333 3.8 7.50667 3.8 7.48C3.8 7.37333 3.78667 7.25333 3.76 7.12L3.4 7.24L2.76 7.48L2.08 7.68C1.94667 7.73333 1.86667 7.69333 1.84 7.56C1.81333 7.45333 1.85333 7.38667 1.96 7.36L2.64 7.12L3.28 6.88L3.72 6.76C3.72 6.62666 3.72 6.48 3.72 6.32L3.36 6.48C3.36 6.48 3.36 6.49333 3.36 6.52L2.68 6.68L2.08 6.88C1.94667 6.90667 1.86667 6.86666 1.84 6.76C1.81333 6.65333 1.85333 6.57333 1.96 6.52L2.6 6.36L3.24 6.16L3.68 5.96C3.68 5.88 3.66667 5.8 3.64 5.72C3.64 5.64 3.64 5.56 3.64 5.48L3.16 5.64L2.52 5.96L1.84 6.24C1.73333 6.26667 1.65333 6.22667 1.6 6.12C1.57333 6.01333 1.61333 5.93333 1.72 5.88L2.36 5.64L3.04 5.32L3.6 5.12C3.6 4.98667 3.58667 4.86667 3.56 4.76L3.08 4.92L2.44 5.12L1.72 5.32C1.61333 5.37333 1.54667 5.33333 1.52 5.2C1.46667 5.09333 1.50667 5.02667 1.64 5L2.32 4.76L3 4.56L3.56 4.4C3.53333 4.21333 3.50667 4.04 3.48 3.88L2.84 4.12L2.12 4.4L1.52 4.68C1.41333 4.73333 1.33333 4.70667 1.28 4.6C1.22667 4.46667 1.25333 4.38667 1.36 4.36L2 4.08L2.68 3.76C2.70667 3.76 2.72 3.76 2.72 3.76L3.44 3.52C3.44 3.41333 3.42667 3.28 3.4 3.12L2.88 3.28L2.28 3.48L1.64 3.8C1.53333 3.82667 1.45333 3.78667 1.4 3.68C1.34667 3.57333 1.37333 3.49333 1.48 3.44L2.16 3.16L2.76 2.96L3.36 2.76C3.33333 2.6 3.32 2.46666 3.32 2.36L2.68 2.6L2.12 2.84C2.09333 2.84 2.08 2.84 2.08 2.84L1.4 3C1.26667 3.05333 1.18667 3.01333 1.16 2.88C1.13333 2.8 1.16 2.73333 1.24 2.68C1.24 2.62667 1.28 2.58667 1.36 2.56L2.04 2.32L2.6 2.16L3.24 1.84C3.26667 1.84 3.29333 1.82667 3.32 1.8C3.32 1.77333 3.33333 1.73333 3.36 1.68L3.04 1.84L2.32 2.08C2.21333 2.13333 2.13333 2.10667 2.08 2C2.05333 1.89333 2.09333 1.81333 2.2 1.76L2.88 1.48L3.44 1.24C3.46667 1.24 3.48 1.24 3.48 1.24C3.48 1.24 3.50667 1.22667 3.56 1.2C3.72 0.933331 4.02667 0.679998 4.48 0.439998C4.64 0.359999 4.77333 0.32 4.88 0.32C4.98667 0.32 5.10667 0.333333 5.24 0.359999C5.37333 0.359999 5.48 0.359999 5.56 0.359999C5.8 0.359999 6.04 0.359999 6.28 0.359999C6.54667 0.359999 6.81333 0.359999 7.08 0.359999C7.82667 0.359999 8.56 0.333332 9.28 0.279998C10.0267 0.226665 10.7733 0.199999 11.52 0.199999C11.5467 0.199999 11.6133 0.199999 11.72 0.199999C12.04 0.199999 12.3733 0.213332 12.72 0.239998C13.0933 0.266665 13.4 0.373332 13.64 0.559999C13.96 0.826665 14.16 1.14667 14.24 1.52C14.32 1.89333 14.3733 2.26667 14.4 2.64C14.56 3.52 14.6667 4.41333 14.72 5.32C14.8 6.22667 14.9467 7.10667 15.16 7.96L15.84 7.72L16.36 7.56C16.4667 7.34667 16.5867 7.18667 16.72 7.08C17.0133 6.81333 17.32 6.66667 17.64 6.64C17.9867 6.58667 18.3467 6.56 18.72 6.56C19.0667 6.53333 19.4133 6.52 19.76 6.52C20.1067 6.52 20.4533 6.52 20.8 6.52C20.88 6.52 20.96 6.52 21.04 6.52C21.12 6.49333 21.2 6.48 21.28 6.48C21.44 6.48 21.6 6.48 21.76 6.48C21.9467 6.48 22.12 6.49333 22.28 6.52C22.44 6.54666 22.6 6.58667 22.76 6.64C22.92 6.66667 23.0667 6.72 23.2 6.8C23.1733 6.69333 23.2133 6.61333 23.32 6.56L23.96 6.4L24.56 6.12C24.56 6.12 24.5733 6.10667 24.6 6.08L25.28 5.92L25.64 5.76C25.6667 5.62667 25.6667 5.53333 25.64 5.48L25.04 5.76L24.36 6.04L23.68 6.24C23.5733 6.29333 23.4933 6.25333 23.44 6.12C23.4133 6.01333 23.4533 5.94667 23.56 5.92L24.24 5.68L24.92 5.44L25.48 5.16L25.72 5.04C25.7467 4.85333 25.7467 4.72 25.72 4.64L25 4.84L24.32 5.08L23.6 5.32C23.4933 5.34667 23.4133 5.30667 23.36 5.2C23.3333 5.06667 23.3733 4.98667 23.48 4.96L24.2 4.72L24.88 4.52L25.6 4.28L25.8 4.2C25.8267 4.09333 25.8267 4.01333 25.8 3.96L25.2 4.24C25.2 4.24 25.2 4.25333 25.2 4.28C25.1733 4.28 25.16 4.28 25.16 4.28L24.56 4.44L23.84 4.64C23.7333 4.66667 23.6667 4.62666 23.64 4.52C23.6133 4.38666 23.6533 4.30667 23.76 4.28L24.44 4.12L25.04 3.92L25.64 3.64L25.88 3.52C25.88 3.36 25.8533 3.25333 25.8 3.2L25.24 3.4L24.52 3.68C24.52 3.70667 24.52 3.72 24.52 3.72L23.92 3.88C23.7867 3.90667 23.7067 3.86667 23.68 3.76C23.6533 3.65333 23.6933 3.58666 23.8 3.56L24.4 3.36L25.08 3.08C25.08 3.08 25.0933 3.06667 25.12 3.04L25.68 2.88L25.96 2.76C25.96 2.62667 25.9333 2.53333 25.88 2.48L25.28 2.72L24.64 3.04C24.6133 3.04 24.6 3.04 24.6 3.04L24.04 3.2C23.9333 3.25333 23.8533 3.22667 23.8 3.12C23.7733 2.98667 23.8133 2.90667 23.92 2.88L24.48 2.68L25.12 2.4C25.12 2.4 25.1333 2.4 25.16 2.4L25.72 2.16L26 2.04C26.0267 1.90667 26.0533 1.78667 26.08 1.68L25.6 1.84L25 2.04L24.32 2.28C24.1867 2.33333 24.1067 2.30667 24.08 2.2C24.0267 2.09333 24.0533 2.01333 24.16 1.96L24.88 1.68L25.52 1.52L26.2 1.24C26.3067 1 26.4667 0.813333 26.68 0.68C26.92 0.466666 27.2 0.359999 27.52 0.359999C27.8667 0.333333 28.2 0.333333 28.52 0.359999C28.6267 0.359999 28.7067 0.359999 28.76 0.359999C29.48 0.386666 30.2 0.399999 30.92 0.399999C31.64 0.399999 32.36 0.359998 33.08 0.279998C33.3467 0.253332 33.6 0.239998 33.84 0.239998C34.08 0.213332 34.3333 0.186666 34.6 0.159999C34.68 0.159999 34.7733 0.146665 34.88 0.119998C35.0133 0.119998 35.1333 0.119998 35.24 0.119998C35.3733 0.119998 35.5067 0.146665 35.64 0.199999C36.2533 0.52 36.6133 0.853333 36.72 1.2C36.8267 1.54666 36.84 2.01333 36.76 2.6C36.7333 2.73333 36.7067 2.86667 36.68 3C36.68 3.13333 36.6667 3.26666 36.64 3.4C36.56 3.93333 36.4933 4.48 36.44 5.04C36.3867 5.6 36.3333 6.16 36.28 6.72C36.1733 7.38667 36.0667 8.06667 35.96 8.76C35.88 9.42667 35.7867 10.0933 35.68 10.76C35.68 10.76 35.6667 10.7733 35.64 10.8C35.64 10.8267 35.64 10.84 35.64 10.84C35.32 11.9067 35.1467 13.0133 35.12 14.16C35.0933 15.3067 34.9333 16.4267 34.64 17.52C34.48 18.2933 34.3733 19.08 34.32 19.88C34.2667 20.68 34.16 21.48 34 22.28C33.8933 23 33.8 23.7333 33.72 24.48C33.64 25.2267 33.5067 25.96 33.32 26.68C33.2667 26.9733 33.2 27.2667 33.12 27.56C33.04 27.8533 32.88 28.12 32.64 28.36C32.4 28.6533 32.12 28.8533 31.8 28.96C31.5067 29.0667 31.1733 29.1467 30.8 29.2ZM13.68 28.76C13.7333 28.76 13.7867 28.7733 13.84 28.8C13.92 28.8 14 28.8 14.08 28.8C14.1867 28.8 14.2933 28.7867 14.4 28.76C14.48 28.7333 14.5467 28.7467 14.6 28.8C14.6267 28.8 14.6667 28.8 14.72 28.8C14.7733 28.8 14.8533 28.8133 14.96 28.84C14.9867 28.84 15.04 28.8133 15.12 28.76C15.1467 28.76 15.1733 28.76 15.2 28.76C15.2533 28.76 15.3333 28.7467 15.44 28.72L16.12 28.48C16.2 28.4533 16.2667 28.48 16.32 28.56C16.4267 28.48 16.5067 28.3867 16.56 28.28C16.64 28.1467 16.72 28.0267 16.8 27.92C16.8533 27.84 16.8933 27.7467 16.92 27.64C16.9467 27.5333 16.9867 27.4267 17.04 27.32C17.1733 26.92 17.3333 26.48 17.52 26C17.7333 25.4667 17.92 24.92 18.08 24.36C18.2667 23.7733 18.4667 23.2133 18.68 22.68C18.6533 22.6533 18.64 22.6267 18.64 22.6C18.6133 22.4933 18.6667 22.4133 18.8 22.36C18.88 22.1733 18.9467 22 19 21.84C19.0267 21.7867 19.0533 21.72 19.08 21.64C19.08 21.56 19.1067 21.4933 19.16 21.44C19.24 21.28 19.3067 21.12 19.36 20.96C19.4133 20.8 19.48 20.6267 19.56 20.44C19.56 20.4133 19.5733 20.36 19.6 20.28C19.5733 20.2 19.5467 20.1333 19.52 20.08C19.4933 20.0267 19.5333 20.0133 19.64 20.04C19.64 19.9333 19.6667 19.8267 19.72 19.72C19.7733 19.6133 19.88 19.5467 20.04 19.52C20.0933 19.52 20.16 19.5467 20.24 19.6C20.3467 19.6267 20.4 19.6667 20.4 19.72C20.48 19.9333 20.56 20.1467 20.64 20.36C20.7467 20.5467 20.84 20.7467 20.92 20.96C21.1333 21.52 21.36 22.0667 21.6 22.6C21.84 23.1333 22.08 23.6667 22.32 24.2C22.5333 24.6533 22.72 25.1067 22.88 25.56C23.0667 26.0133 23.24 26.4667 23.4 26.92C23.48 27.16 23.56 27.4 23.64 27.64C23.7467 27.88 23.9067 28.08 24.12 28.24C24.36 28.4 24.6267 28.48 24.92 28.48C25.24 28.48 25.5467 28.4533 25.84 28.4C26.0533 28.4 26.2133 28.3867 26.32 28.36C26.8 28.3333 27.2667 28.3067 27.72 28.28C28.2 28.2533 28.6667 28.24 29.12 28.24C29.2267 28.24 29.3333 28.24 29.44 28.24C29.5467 28.24 29.64 28.24 29.72 28.24C29.88 28.24 30.0267 28.24 30.16 28.24C30.2933 28.24 30.4267 28.24 30.56 28.24C30.8267 28.2133 31.08 28.1733 31.32 28.12C31.56 28.0667 31.7733 27.9333 31.96 27.72C32.0933 27.56 32.1867 27.3733 32.24 27.16C32.2933 26.92 32.3467 26.68 32.4 26.44C32.5867 25.7467 32.7067 25.0267 32.76 24.28C32.84 23.5333 32.9467 22.8 33.08 22.08C33.2133 21.3067 33.3067 20.52 33.36 19.72C33.4133 18.8933 33.52 18.0933 33.68 17.32C33.68 17.32 33.68 17.3067 33.68 17.28C33.7067 17.28 33.7067 17.28 33.68 17.28C34 16.2133 34.1733 15.1067 34.2 13.96C34.2267 12.7867 34.4 11.6667 34.72 10.6C34.8267 9.93333 34.92 9.26667 35 8.6C35.1067 7.93333 35.2133 7.26667 35.32 6.6C35.3733 6.04 35.4267 5.48 35.48 4.92C35.5333 4.36 35.6 3.8 35.68 3.24C35.7067 3.13333 35.72 3.01333 35.72 2.88C35.7467 2.74666 35.7733 2.61333 35.8 2.48C35.8 2.4 35.8133 2.30667 35.84 2.2C35.8933 1.90667 35.8933 1.69333 35.84 1.56C35.7867 1.42666 35.5733 1.26667 35.2 1.08C35.1733 1.05333 35.0533 1.05333 34.84 1.08C34.7333 1.10667 34.6667 1.12 34.64 1.12C34.4 1.14667 34.1467 1.17333 33.88 1.2C33.64 1.2 33.4 1.21333 33.16 1.24C32.44 1.32 31.7067 1.36 30.96 1.36C30.2133 1.36 29.4667 1.34667 28.72 1.32C28.6933 1.32 28.6133 1.30667 28.48 1.28C28.2667 1.28 28.04 1.28 27.8 1.28C27.56 1.28 27.3867 1.33333 27.28 1.44C27.12 1.54666 27.0133 1.72 26.96 1.96C26.9333 2.17333 26.92 2.38667 26.92 2.6C26.92 2.73333 26.9067 2.82667 26.88 2.88C26.8267 3.62667 26.76 4.38667 26.68 5.16C26.6 5.93333 26.4933 6.69333 26.36 7.44C26.2267 8.16 26.12 8.90667 26.04 9.68C25.9867 10.4267 25.9067 11.16 25.8 11.88C25.7467 12.1467 25.7067 12.3733 25.68 12.56C25.7333 12.8267 25.72 12.9067 25.64 12.8C25.6133 12.96 25.5867 13.12 25.56 13.28C25.56 13.3333 25.52 13.4 25.44 13.48C25.36 13.5333 25.28 13.56 25.2 13.56C24.96 13.5333 24.8267 13.4 24.8 13.16C24.6667 13.2133 24.6133 13.2133 24.64 13.16C24.64 13.0533 24.6533 12.9333 24.68 12.8C24.6533 12.8 24.6267 12.7867 24.6 12.76C24.5467 12.68 24.56 12.5867 24.64 12.48C24.5867 12.32 24.52 12.12 24.44 11.88C24.3867 11.7733 24.3467 11.64 24.32 11.48C24.2933 11.48 24.28 11.4667 24.28 11.44C24.2533 11.4133 24.24 11.3733 24.24 11.32C24.2133 11.2667 24.1867 11.2 24.16 11.12C24.1333 11.04 24.1067 10.96 24.08 10.88C24 10.88 23.9467 10.84 23.92 10.76C23.92 10.68 23.9333 10.6267 23.96 10.6C23.88 10.3333 23.7867 10.08 23.68 9.84C23.6 9.6 23.52 9.34667 23.44 9.08C23.44 9.05333 23.4267 9.02667 23.4 9C23.3733 8.97333 23.36 8.94666 23.36 8.92C23.3333 8.86667 23.3333 8.81333 23.36 8.76C23.3067 8.62667 23.2667 8.52 23.24 8.44C23.1867 8.44 23.1333 8.4 23.08 8.32C23.0533 8.24 23.0667 8.17333 23.12 8.12C23.04 7.93333 22.9467 7.8 22.84 7.72C22.7333 7.64 22.6133 7.58667 22.48 7.56C22.3467 7.50667 22.2267 7.46666 22.12 7.44C21.96 7.41333 21.8133 7.41333 21.68 7.44C21.5467 7.44 21.4 7.44 21.24 7.44C21.0533 7.46666 20.9067 7.48 20.8 7.48C20.4533 7.48 20.1067 7.48 19.76 7.48C19.4133 7.48 19.0667 7.49333 18.72 7.52C18.6933 7.52 18.6267 7.52 18.52 7.52C18.3067 7.52 18.0933 7.53333 17.88 7.56C17.6933 7.56 17.52 7.64 17.36 7.8C17.2533 7.88 17.1733 7.98667 17.12 8.12C17.0667 8.25333 17.0133 8.38667 16.96 8.52C16.9067 8.76 16.84 9.01333 16.76 9.28C16.68 9.52 16.6133 9.76 16.56 10C16.4533 10.3733 16.3467 10.7467 16.24 11.12C16.1333 11.4933 16.0133 11.8667 15.88 12.24C15.8 12.5333 15.72 12.7733 15.64 12.96C15.6667 13.1467 15.6933 13.3333 15.72 13.52C15.7467 13.68 15.68 13.7867 15.52 13.84C15.3867 13.8933 15.24 13.92 15.08 13.92C14.8933 13.8933 14.7333 13.84 14.6 13.76C14.4667 13.6533 14.44 13.5333 14.52 13.4C14.5733 13.24 14.6267 13.0667 14.68 12.88C14.6533 12.6667 14.6133 12.4267 14.56 12.16C14.5067 11.8133 14.4667 11.44 14.44 11.04C14.44 11.0133 14.44 11 14.44 11C14.44 11 14.44 10.9867 14.44 10.96C14.4133 10.8267 14.4 10.68 14.4 10.52C14.3733 10.52 14.36 10.5067 14.36 10.48C14.3333 10.4267 14.3333 10.3733 14.36 10.32C14.3333 10.16 14.3067 10 14.28 9.84C14.28 9.68 14.28 9.52 14.28 9.36C14.1733 9.38667 14.1067 9.34667 14.08 9.24C14.0267 9.13333 14.08 9.05333 14.24 9C14.2133 8.73333 14.1867 8.49333 14.16 8.28C13.9733 7.37333 13.84 6.46667 13.76 5.56C13.7067 4.62666 13.6133 3.69333 13.48 2.76C13.4533 2.54667 13.4133 2.29333 13.36 2C13.3333 1.70667 13.2267 1.48 13.04 1.32C12.9067 1.24 12.7067 1.2 12.44 1.2C12.2 1.17333 11.9733 1.16 11.76 1.16C11.6533 1.16 11.5733 1.16 11.52 1.16C10.7733 1.16 10.0267 1.18667 9.28 1.24C8.56 1.29333 7.82667 1.32 7.08 1.32C6.84 1.32 6.58667 1.32 6.32 1.32C6.05333 1.32 5.8 1.32 5.56 1.32C5.53333 1.32 5.46667 1.32 5.36 1.32C5.14667 1.26667 5.01333 1.25333 4.96 1.28C4.56 1.49333 4.33333 1.68 4.28 1.84C4.25333 1.97333 4.25333 2.18667 4.28 2.48C4.30667 2.61333 4.32 2.70667 4.32 2.76C4.37333 3.05333 4.4 3.30667 4.4 3.52C4.45333 3.76 4.48 4 4.48 4.24C4.50667 4.48 4.53333 4.72 4.56 4.96C4.56 5.01333 4.56 5.05333 4.56 5.08C4.56 5.18666 4.56 5.29333 4.56 5.4C4.58667 5.48 4.6 5.57333 4.6 5.68C4.62667 5.68 4.65333 5.69333 4.68 5.72C4.70667 5.8 4.69333 5.86666 4.64 5.92C4.64 6.10666 4.65333 6.26667 4.68 6.4C4.70667 6.42667 4.73333 6.46667 4.76 6.52C4.81333 6.6 4.78667 6.66667 4.68 6.72C4.70667 6.88 4.73333 7.02667 4.76 7.16C4.81333 7.18667 4.85333 7.22667 4.88 7.28C4.93333 7.38667 4.90667 7.46667 4.8 7.52C4.8 7.65333 4.81333 7.78667 4.84 7.92C4.92 7.92 4.97333 7.96 5 8.04C5.05333 8.17333 5.01333 8.25333 4.88 8.28C4.90667 8.41333 4.92 8.56 4.92 8.72C5.02667 8.69333 5.09333 8.73333 5.12 8.84C5.14667 8.94667 5.10667 9.02667 5 9.08C5 9.21333 5.01333 9.34667 5.04 9.48C5.12 9.48 5.18667 9.52 5.24 9.6C5.26667 9.70667 5.21333 9.78667 5.08 9.84C5.10667 9.92 5.12 10 5.12 10.08C5.12 10.1333 5.13333 10.1867 5.16 10.24C5.24 10.24 5.29333 10.28 5.32 10.36C5.37333 10.4667 5.33333 10.5467 5.2 10.6C5.22667 10.76 5.25333 10.9067 5.28 11.04C5.36 11.0133 5.41333 11.0533 5.44 11.16C5.49333 11.2667 5.45333 11.3467 5.32 11.4C5.34667 11.5333 5.36 11.6667 5.36 11.8C5.46667 11.7733 5.53333 11.8133 5.56 11.92C5.58667 12.0533 5.53333 12.1333 5.4 12.16C5.42667 12.2933 5.45333 12.4267 5.48 12.56C5.56 12.56 5.62667 12.6 5.68 12.68C5.70667 12.7867 5.65333 12.88 5.52 12.96C5.52 13.0133 5.52 13.08 5.52 13.16C5.52 13.2133 5.53333 13.28 5.56 13.36C5.66667 13.3067 5.73333 13.3333 5.76 13.44C5.81333 13.5467 5.76 13.64 5.6 13.72C5.6 13.9067 5.61333 14.04 5.64 14.12C5.74667 14.0667 5.82667 14.1067 5.88 14.24C5.93333 14.3467 5.86667 14.44 5.68 14.52C5.70667 14.68 5.74667 14.8 5.8 14.88C5.90667 14.8533 5.97333 14.9067 6 15.04C6.05333 15.1467 5.98667 15.2267 5.8 15.28C5.82667 15.4133 5.85333 15.5467 5.88 15.68C5.98667 15.6267 6.06667 15.6667 6.12 15.8C6.14667 15.9067 6.10667 15.9733 6 16C6.02667 16.1333 6.06667 16.28 6.12 16.44C6.17333 16.44 6.21333 16.48 6.24 16.56C6.26667 16.64 6.25333 16.7067 6.2 16.76C6.22667 16.92 6.25333 17.08 6.28 17.24C6.30667 17.2667 6.32 17.2933 6.32 17.32C6.34667 17.3733 6.34667 17.4267 6.32 17.48C6.34667 17.6667 6.38667 17.8533 6.44 18.04C6.44 18.0667 6.44 18.08 6.44 18.08C6.46667 18.1333 6.46667 18.1867 6.44 18.24C6.46667 18.3733 6.49333 18.56 6.52 18.8C6.54667 18.8267 6.56 18.8533 6.56 18.88C6.58667 18.9333 6.58667 18.9867 6.56 19.04C6.58667 19.2533 6.61333 19.4267 6.64 19.56C6.66667 19.5867 6.68 19.6133 6.68 19.64C6.70667 19.6933 6.69333 19.7467 6.64 19.8C6.69333 19.9867 6.73333 20.16 6.76 20.32C6.76 20.3467 6.77333 20.3867 6.8 20.44C6.8 20.4933 6.78667 20.5333 6.76 20.56C6.84 20.9333 6.92 21.3067 7 21.68C7.10667 22.0267 7.22667 22.36 7.36 22.68C7.36 22.68 7.36 22.6933 7.36 22.72C7.36 22.7467 7.36 22.76 7.36 22.76C7.49333 23.2933 7.61333 23.8267 7.72 24.36C7.85333 24.8667 7.96 25.3867 8.04 25.92C8.12 26.32 8.17333 26.7333 8.2 27.16C8.25333 27.5867 8.4 27.96 8.64 28.28C8.74667 28.4667 8.93333 28.56 9.2 28.56C9.22667 28.5333 9.26667 28.52 9.32 28.52C9.37333 28.4933 9.41333 28.48 9.44 28.48C10.1333 28.56 10.84 28.6267 11.56 28.68C12.28 28.7067 12.9867 28.7333 13.68 28.76ZM25.4 6.24L24.72 6.44L24.08 6.72L23.4 6.92C23.4267 6.94667 23.4533 6.97333 23.48 7C23.5333 7.02667 23.5867 7.06667 23.64 7.12C23.6933 7.17333 23.76 7.21333 23.84 7.24L24.48 6.92L25.2 6.64L25.56 6.52C25.56 6.36 25.5067 6.26667 25.4 6.24ZM23.92 7.6C23.9467 7.65333 23.9733 7.69333 24 7.72L24.44 7.56L25.16 7.32L25.44 7.24C25.4667 7.10667 25.4267 7.02667 25.32 7L24.64 7.24L23.92 7.6ZM24.12 8.08C24.1467 8.13333 24.1733 8.21333 24.2 8.32L24.56 8.24L25.12 8.08L25.32 8C25.3467 7.84 25.3333 7.73333 25.28 7.68L24.56 7.88L24.12 8.08ZM15.16 8.64L15.4 8.52L16.04 8.36C16.04 8.30667 16.0533 8.26667 16.08 8.24C16.08 8.24 16.08 8.22666 16.08 8.2C16.08 8.17333 16.08 8.16 16.08 8.16C16.08 8.16 16.08 8.14667 16.08 8.12L15.48 8.4C15.3733 8.45333 15.2933 8.42667 15.24 8.32C15.24 8.32 15.2 8.33333 15.12 8.36C15.12 8.44 15.1333 8.53333 15.16 8.64ZM24.32 8.68C24.3467 8.70667 24.36 8.74667 24.36 8.8C24.3867 8.88 24.4133 8.96 24.44 9.04L24.72 8.96L25.12 8.76C25.12 8.76 25.1333 8.74667 25.16 8.72C25.16 8.72 25.1733 8.72 25.2 8.72C25.2267 8.58667 25.24 8.49333 25.24 8.44C25.2133 8.44 25.2 8.44 25.2 8.44L24.64 8.56L24.32 8.68ZM15.92 8.76L15.52 8.88L15.2 9C15.2 9.05333 15.2 9.13333 15.2 9.24L15.44 9.12L15.84 9.04C15.8667 8.93333 15.8933 8.84 15.92 8.76ZM24.56 9.4C24.6133 9.56 24.6667 9.66667 24.72 9.72L25.08 9.56C25.08 9.56 25.08 9.54667 25.08 9.52C25.08 9.52 25.0933 9.52 25.12 9.52C25.12 9.46667 25.12 9.41333 25.12 9.36C25.1467 9.28 25.16 9.2 25.16 9.12L24.88 9.32C24.8533 9.32 24.84 9.32 24.84 9.32L24.56 9.4ZM15.24 9.6C15.2667 9.73333 15.2933 9.84 15.32 9.92L15.6 9.84C15.6267 9.81333 15.64 9.78667 15.64 9.76C15.6667 9.62667 15.64 9.53333 15.56 9.48L15.24 9.6ZM24.8 10.08C24.8533 10.2133 24.9333 10.28 25.04 10.28C25.0667 10.12 24.9867 10.0533 24.8 10.08ZM19.84 22.32C19.7867 22.48 19.72 22.64 19.64 22.8L19.88 22.72L20.52 22.48C20.44 22.32 20.3733 22.1867 20.32 22.08L19.84 22.32ZM19.48 23.24C19.4267 23.4 19.4 23.52 19.4 23.6C19.4267 23.6 19.44 23.6 19.44 23.6L20.12 23.32L20.8 23.12C20.7467 23.0133 20.6933 22.9067 20.64 22.8L20 23.04L19.48 23.24ZM48.4978 29.4L47.9378 29.6L47.2978 29.8L46.7378 29.96C46.6311 30.0133 46.5511 29.9867 46.4978 29.88C46.4978 29.8267 46.4845 29.8 46.4578 29.8L45.8178 29.96C45.7111 30.0133 45.6445 29.9733 45.6178 29.84L45.1778 30.04C45.1245 30.0667 45.0711 30.0667 45.0178 30.04L44.4178 30.2C44.3111 30.2533 44.2445 30.2267 44.2178 30.12C44.1645 29.9867 44.2045 29.9067 44.3378 29.88L45.0578 29.6C44.9778 29.6 44.9111 29.6 44.8578 29.6L44.2978 29.88L43.6178 30.16C43.5111 30.2133 43.4311 30.1867 43.3778 30.08C43.3778 30.0533 43.3778 30.0267 43.3778 30L42.9778 30.16C42.8445 30.2133 42.7645 30.1867 42.7378 30.08C42.7111 30.0533 42.6978 30.0267 42.6978 30L42.2578 30.12C42.1245 30.1733 42.0445 30.1467 42.0178 30.04C41.9911 29.9333 41.9511 29.8933 41.8978 29.92L41.1778 30.2C41.0711 30.2533 40.9911 30.2267 40.9378 30.12L40.7378 30.2C40.6311 30.2533 40.5511 30.2267 40.4978 30.12C40.4445 30.0133 40.4711 29.9333 40.5778 29.88L40.6978 29.72L40.4978 29.8L39.8978 30.08C39.7911 30.1333 39.7111 30.1067 39.6578 30C39.6578 29.9733 39.6578 29.9467 39.6578 29.92L39.1778 30.04C39.0711 30.0933 39.0045 30.0533 38.9778 29.92C38.9778 29.92 38.9778 29.9067 38.9778 29.88L38.4578 30.04C38.3511 30.0933 38.2711 30.0667 38.2178 29.96C38.2178 29.9333 38.2178 29.92 38.2178 29.92C38.1911 29.8933 38.1645 29.8667 38.1378 29.84C38.1111 29.7333 38.1511 29.6533 38.2578 29.6L38.9378 29.32C38.9378 29.32 38.9511 29.32 38.9778 29.32L39.5378 29.16C39.5378 29.16 39.5378 29.1467 39.5378 29.12C39.5111 29.12 39.4845 29.1067 39.4578 29.08L38.8978 29.24L38.2978 29.48L37.6578 29.72C37.5511 29.7733 37.4711 29.7467 37.4178 29.64C37.3645 29.5333 37.3911 29.4533 37.4978 29.4L38.1778 29.12L38.7778 28.92C38.7778 28.8933 38.7778 28.8933 38.7778 28.92L39.2578 28.76C39.2311 28.68 39.1911 28.6 39.1378 28.52C39.1111 28.44 39.0845 28.36 39.0578 28.28L38.5378 28.4L37.8578 28.72L37.1778 28.96C37.0711 29.0133 36.9911 28.9867 36.9378 28.88C36.9111 28.7733 36.9511 28.6933 37.0578 28.64L37.6978 28.36L38.4178 28.08C38.4178 28.0533 38.4178 28.04 38.4178 28.04L38.9778 27.92C38.9778 27.84 38.9778 27.7467 38.9778 27.64L38.6178 27.76C38.6178 27.76 38.6178 27.7733 38.6178 27.8L37.8978 27.96L37.2978 28.24C37.1911 28.2933 37.1111 28.2533 37.0578 28.12C37.0045 28.0133 37.0445 27.9333 37.1778 27.88L37.7778 27.64C37.7778 27.64 37.7911 27.64 37.8178 27.64L38.4978 27.44L38.9778 27.24C38.9778 27.2133 38.9911 27.1733 39.0178 27.12C39.0178 27.0133 39.0178 26.9067 39.0178 26.8L38.5778 27L38.0178 27.28C37.9911 27.28 37.9778 27.28 37.9778 27.28L37.3778 27.44C37.2711 27.4933 37.1911 27.4533 37.1378 27.32C37.1111 27.2133 37.1511 27.1467 37.2578 27.12L37.8578 26.92L38.4578 26.68L39.0178 26.44C39.0178 26.3067 39.0178 26.1867 39.0178 26.08L38.6178 26.16L38.0578 26.48L37.3778 26.76C37.2711 26.7867 37.1911 26.7467 37.1378 26.64C37.1111 26.5333 37.1511 26.4533 37.2578 26.4L37.8978 26.16L38.4578 25.84C38.4578 25.84 38.4711 25.84 38.4978 25.84L39.0178 25.68C39.0178 25.52 39.0178 25.3467 39.0178 25.16L38.4978 25.32L37.8978 25.52C37.8978 25.52 37.8845 25.52 37.8578 25.52C37.8578 25.5467 37.8578 25.56 37.8578 25.56L37.2578 25.72C37.1511 25.7467 37.0711 25.7067 37.0178 25.6C36.9911 25.4933 37.0311 25.4267 37.1378 25.4L37.7778 25.2L38.3778 24.96L39.0578 24.8C39.0578 24.7733 39.0578 24.7467 39.0578 24.72C39.0578 24.6933 39.0578 24.68 39.0578 24.68C39.0578 24.6267 39.0578 24.5867 39.0578 24.56L38.7378 24.72L38.0978 25.04C38.0711 25.04 38.0578 25.04 38.0578 25.04L37.4978 25.24C37.3911 25.2667 37.3111 25.2267 37.2578 25.12C37.2311 24.9867 37.2711 24.9067 37.3778 24.88L37.9378 24.68L38.5778 24.4L39.0578 24.16C39.0845 24 39.0978 23.8267 39.0978 23.64L38.4978 23.92L37.9378 24.2L37.2178 24.52C37.1111 24.5733 37.0311 24.5467 36.9778 24.44C36.9245 24.3067 36.9645 24.2267 37.0978 24.2L37.7778 23.88L38.3378 23.6C38.3378 23.6 38.3378 23.5867 38.3378 23.56C38.3645 23.56 38.3778 23.56 38.3778 23.56L39.0578 23.28C39.0578 23.28 39.0711 23.2667 39.0978 23.24C39.0978 23.1067 39.0978 22.9733 39.0978 22.84L38.5778 23.04L37.9378 23.24L37.2578 23.44C37.1511 23.4933 37.0711 23.4533 37.0178 23.32C36.9911 23.2133 37.0311 23.1467 37.1378 23.12L37.8578 22.88L38.4578 22.72L39.1378 22.48C39.1378 22.3733 39.1378 22.2667 39.1378 22.16L38.6178 22.32L38.0178 22.6C37.9911 22.6 37.9778 22.6 37.9778 22.6L37.2978 22.84C37.1911 22.8667 37.1111 22.8267 37.0578 22.72C37.0311 22.6133 37.0711 22.5333 37.1778 22.48L37.8578 22.28L38.4978 22L39.1378 21.76C39.1378 21.6 39.1378 21.44 39.1378 21.28L38.7378 21.4L38.1778 21.64C38.1778 21.64 38.1645 21.6533 38.1378 21.68L37.4578 21.84C37.3245 21.8667 37.2445 21.8267 37.2178 21.72C37.1911 21.6133 37.2311 21.5467 37.3378 21.52L38.0178 21.32L38.5778 21.08C38.6045 21.08 38.6178 21.08 38.6178 21.08C38.6178 21.0533 38.6178 21.04 38.6178 21.04L39.1378 20.88C39.1378 20.6933 39.1378 20.56 39.1378 20.48L38.5778 20.64L38.0178 20.96L37.2978 21.24C37.1911 21.2667 37.1111 21.2267 37.0578 21.12C37.0311 21.0133 37.0711 20.9333 37.1778 20.88L37.8578 20.64L38.4178 20.32C38.4178 20.32 38.4311 20.32 38.4578 20.32L39.1378 20.08C39.1378 19.9467 39.1378 19.8267 39.1378 19.72L38.5378 19.96L37.9378 20.2L37.3378 20.48C37.2311 20.5333 37.1511 20.5067 37.0978 20.4C37.0445 20.2933 37.0711 20.2133 37.1778 20.16L37.7778 19.88L38.4178 19.6L39.1378 19.32C39.1378 19.1867 39.1511 19.0533 39.1778 18.92L38.6978 19.04L38.1378 19.36L37.4178 19.6C37.3111 19.6533 37.2311 19.6267 37.1778 19.52C37.1511 19.4133 37.1911 19.3333 37.2978 19.28L37.9778 19.04L38.5378 18.72C38.5378 18.72 38.5511 18.72 38.5778 18.72L39.1778 18.52C39.1778 18.3867 39.1778 18.2667 39.1778 18.16L38.6178 18.4L37.9378 18.64L37.2178 18.96C37.1111 19.0133 37.0311 18.9867 36.9778 18.88C36.9245 18.7467 36.9645 18.6667 37.0978 18.64L37.7778 18.32L38.4978 18.04L39.2178 17.76C39.2178 17.6267 39.2178 17.4933 39.2178 17.36L38.5778 17.6L38.0178 17.92L37.4178 18.16C37.3111 18.2133 37.2311 18.1867 37.1778 18.08C37.1245 17.9733 37.1511 17.8933 37.2578 17.84L37.8578 17.56L38.4178 17.28C38.4445 17.28 38.4578 17.28 38.4578 17.28L39.2578 16.96C39.2578 16.88 39.2578 16.8 39.2578 16.72C39.2845 16.6133 39.2711 16.5467 39.2178 16.52L38.4978 16.8L37.8178 17.12L37.0978 17.44C36.9911 17.4667 36.9111 17.4267 36.8578 17.32C36.8045 17.2133 36.8445 17.1333 36.9778 17.08L37.6578 16.8L38.3778 16.48L39.0578 16.2C39.0578 16.1733 39.0578 16.16 39.0578 16.16C39.0845 16.16 39.0978 16.16 39.0978 16.16L39.2978 16.08C39.3245 15.92 39.2845 15.8 39.1778 15.72L38.6178 15.92L38.0178 16.2C38.0178 16.2 38.0178 16.2133 38.0178 16.24C37.9911 16.24 37.9778 16.24 37.9778 16.24L37.3778 16.4C37.2711 16.4533 37.1911 16.4133 37.1378 16.28C37.1111 16.1733 37.1511 16.1067 37.2578 16.08L37.8578 15.88L38.4578 15.6C38.4578 15.6 38.4711 15.6 38.4978 15.6C38.4978 15.5733 38.4978 15.56 38.4978 15.56L39.0978 15.4L39.3778 15.32C39.3778 15.1067 39.3111 14.9733 39.1778 14.92L38.5778 15.08L38.0178 15.4C37.9911 15.4 37.9778 15.4 37.9778 15.4L37.2978 15.6C37.1645 15.6267 37.0845 15.5733 37.0578 15.44C37.0311 15.3333 37.0711 15.2667 37.1778 15.24L37.8578 15.08L38.4178 14.76C38.4178 14.76 38.4311 14.76 38.4578 14.76L39.0978 14.56L39.4178 14.48C39.4178 14.2933 39.3911 14.1733 39.3378 14.12L38.6578 14.44L38.0578 14.6L37.4978 14.8C37.3911 14.8267 37.3111 14.7867 37.2578 14.68C37.2311 14.5733 37.2711 14.4933 37.3778 14.44L37.9778 14.28L38.5378 14.08L39.1778 13.8C39.2045 13.8 39.2178 13.8 39.2178 13.8L39.4578 13.72C39.4578 13.56 39.4045 13.4667 39.2978 13.44C39.2711 13.4667 39.2578 13.48 39.2578 13.48L38.5778 13.68L38.0178 13.96C37.9911 13.96 37.9778 13.96 37.9778 13.96L37.2978 14.16C37.1911 14.2133 37.1111 14.1867 37.0578 14.08C37.0311 13.9467 37.0711 13.8667 37.1778 13.84L37.8578 13.6L38.4178 13.36C38.4178 13.36 38.4311 13.36 38.4578 13.36L39.1378 13.12L39.4978 12.96C39.4978 12.7733 39.4445 12.68 39.3378 12.68L38.6978 12.92L38.0578 13.12L37.3778 13.44C37.2711 13.4933 37.1911 13.4667 37.1378 13.36C37.0845 13.2533 37.1111 13.1733 37.2178 13.12L37.8978 12.8C37.9245 12.8 37.9378 12.8 37.9378 12.8L38.5778 12.56L39.1778 12.36L39.5378 12.16C39.5645 12 39.5778 11.84 39.5778 11.68L39.2978 11.76L38.6578 12.04L37.9778 12.36L37.3378 12.56C37.2311 12.6133 37.1511 12.5867 37.0978 12.48C37.0711 12.3467 37.1111 12.2667 37.2178 12.24L37.8178 12L38.5378 11.72L39.1378 11.44C39.1645 11.44 39.1778 11.44 39.1778 11.44L39.5778 11.32C39.6045 11.1867 39.6178 11.0533 39.6178 10.92L39.2178 11.04L38.6178 11.2L38.0578 11.48L37.3378 11.76C37.2311 11.7867 37.1511 11.7467 37.0978 11.64C37.0711 11.5333 37.1111 11.4533 37.2178 11.4L37.8978 11.16L38.4578 10.88C38.4845 10.88 38.4978 10.88 38.4978 10.88L39.1378 10.68L39.6178 10.52C39.6178 10.3867 39.6178 10.2667 39.6178 10.16L39.2578 10.32L38.6178 10.6L37.9778 10.84L37.2578 11.12C37.1511 11.1733 37.0711 11.1467 37.0178 11.04C36.9911 10.9067 37.0311 10.8267 37.1378 10.8L37.8178 10.52L38.4978 10.28L39.0978 10L39.6578 9.76C39.6578 9.6 39.6578 9.45333 39.6578 9.32L39.2978 9.44L38.7378 9.64L38.0578 9.88L37.4178 10.08C37.2845 10.1067 37.2045 10.0667 37.1778 9.96C37.1511 9.82667 37.1911 9.74667 37.2978 9.72L37.9778 9.52L38.6178 9.32L39.2178 9.08L39.6578 8.96C39.6578 8.82666 39.6578 8.69333 39.6578 8.56L39.3378 8.64L38.6978 8.96L38.0978 9.24C38.0711 9.24 38.0578 9.24 38.0578 9.24L37.4178 9.44C37.2845 9.46667 37.2045 9.42667 37.1778 9.32C37.1511 9.21333 37.1911 9.13333 37.2978 9.08L37.9378 8.92L38.5378 8.64L39.1778 8.32C39.2045 8.32 39.2178 8.32 39.2178 8.32L39.6178 8.16C39.6178 8.02667 39.6178 7.89333 39.6178 7.76L39.2578 7.88L38.6178 8.08L38.0178 8.32L37.2978 8.6C37.1911 8.65333 37.1111 8.62667 37.0578 8.52C37.0045 8.41333 37.0445 8.33333 37.1778 8.28L37.8578 7.96L38.4978 7.76L39.1778 7.52L39.6178 7.4C39.6178 7.26667 39.6045 7.13333 39.5778 7L39.2578 7.12L38.6178 7.4L38.0578 7.72L37.4578 8.04C37.3511 8.09333 37.2711 8.06667 37.2178 7.96C37.1645 7.85333 37.1911 7.77333 37.2978 7.72L37.8978 7.4L38.4578 7.08L39.0978 6.8C39.1245 6.77333 39.1378 6.76 39.1378 6.76L39.5778 6.6C39.5778 6.49333 39.5778 6.37333 39.5778 6.24L39.2178 6.36L38.5778 6.6L37.9378 6.92L37.3378 7.12C37.2311 7.17333 37.1511 7.14667 37.0978 7.04C37.0711 6.90667 37.1111 6.82667 37.2178 6.8L37.7778 6.56L38.4178 6.28C38.4445 6.25333 38.4578 6.25333 38.4578 6.28C38.4578 6.28 38.4578 6.26667 38.4578 6.24L39.0978 6.04L39.5378 5.88C39.5378 5.82667 39.5378 5.77333 39.5378 5.72C39.5378 5.66667 39.5378 5.62666 39.5378 5.6C39.5378 5.54667 39.5378 5.49333 39.5378 5.44L39.1778 5.52L38.5378 5.68L37.8978 5.88L37.2978 6.16C37.1911 6.18666 37.1111 6.14667 37.0578 6.04C37.0045 5.93333 37.0311 5.85333 37.1378 5.8L37.7378 5.56C37.7378 5.56 37.7511 5.54667 37.7778 5.52L38.4178 5.36L39.0978 5.16L39.4978 5.04C39.4978 4.90667 39.4445 4.84 39.3378 4.84L38.7378 5.08L38.1778 5.28L37.4978 5.6C37.3911 5.65333 37.3111 5.62667 37.2578 5.52C37.2045 5.41333 37.2311 5.33333 37.3378 5.28L38.0178 4.96L38.6178 4.72L39.1778 4.52L39.4978 4.36C39.4978 4.28 39.4978 4.2 39.4978 4.12C39.4978 4.04 39.4978 3.96 39.4978 3.88L39.2178 4L38.6178 4.2L37.8978 4.4L37.3378 4.64C37.2311 4.66667 37.1511 4.62666 37.0978 4.52C37.0711 4.41333 37.1111 4.33333 37.2178 4.28L37.7778 4.04C37.7778 4.04 37.7911 4.04 37.8178 4.04L38.4978 3.88L39.0578 3.64C39.0845 3.64 39.0978 3.64 39.0978 3.64L39.4978 3.52C39.4711 3.36 39.4578 3.21333 39.4578 3.08L39.1778 3.16L38.5778 3.4L38.0178 3.64L37.3778 3.96C37.2711 4.01333 37.1911 3.98667 37.1378 3.88C37.0845 3.77333 37.1111 3.69333 37.2178 3.64L37.8578 3.32L38.4178 3.04C38.4178 3.04 38.4311 3.04 38.4578 3.04L39.0578 2.84C39.0578 2.84 39.0711 2.82667 39.0978 2.8L39.4578 2.72C39.4578 2.66667 39.4578 2.6 39.4578 2.52C39.4578 2.44 39.4578 2.38667 39.4578 2.36L39.2178 2.4L38.5378 2.72L37.8978 2.92L37.2578 3.08C37.1245 3.13333 37.0445 3.09333 37.0178 2.96C36.9911 2.85333 37.0311 2.78667 37.1378 2.76L37.8178 2.56L38.4178 2.4L39.0578 2.08C39.0845 2.08 39.0978 2.08 39.0978 2.08L39.4178 1.96C39.4445 1.88 39.4578 1.81333 39.4578 1.76L39.1378 1.92L38.4978 2.12C38.4711 2.14667 38.4045 2.14667 38.2978 2.12L37.6978 2.36C37.5911 2.41333 37.5111 2.38667 37.4578 2.28C37.4311 2.14667 37.4711 2.06667 37.5778 2.04L38.1378 1.8L38.6978 1.56C38.7245 1.56 38.7378 1.54666 38.7378 1.52L39.5378 1.32C39.5911 1.05333 39.6978 0.826665 39.8578 0.639998C40.1511 0.293331 40.4978 0.106664 40.8978 0.079998C41.3245 0.0266654 41.7378 -9.53674e-07 42.1378 -9.53674e-07C42.2978 -9.53674e-07 42.4045 -9.53674e-07 42.4578 -9.53674e-07C42.8045 -9.53674e-07 43.1378 0.0133322 43.4578 0.0399985C43.8045 0.0666649 44.1511 0.0933312 44.4978 0.119998C45.0045 0.146665 45.5111 0.173333 46.0178 0.199999C46.5511 0.226665 47.0845 0.226665 47.6178 0.199999C47.6978 0.199999 47.7911 0.199999 47.8978 0.199999C48.0045 0.173333 48.0978 0.159999 48.1778 0.159999C48.5511 0.133331 48.9245 0.133331 49.2978 0.159999C49.6711 0.159999 50.0045 0.306666 50.2978 0.599998C50.5645 0.866665 50.7111 1.16 50.7378 1.48C50.7911 1.8 50.8178 2.13333 50.8178 2.48C50.8178 2.53333 50.8178 2.57333 50.8178 2.6C50.7911 3.42667 50.7378 4.25333 50.6578 5.08C50.5778 5.90667 50.5111 6.73333 50.4578 7.56C50.4578 7.56 50.4445 7.57333 50.4178 7.6C50.2845 8.4 50.2178 9.33333 50.2178 10.4C50.2445 11.44 50.2978 12.4933 50.3778 13.56C50.4845 14.6 50.5778 15.5333 50.6578 16.36C50.7111 16.8933 50.7378 17.44 50.7378 18C50.7378 18.5333 50.7245 19.08 50.6978 19.64C50.6711 20.2 50.6445 20.76 50.6178 21.32C50.6178 21.88 50.6445 22.44 50.6978 23C50.6978 23.0267 50.6978 23.04 50.6978 23.04C50.7511 23.6533 50.7778 24.2667 50.7778 24.88C50.8045 25.4933 50.8311 26.12 50.8578 26.76C50.8578 26.7867 50.8578 26.84 50.8578 26.92C50.8578 27.2667 50.8311 27.6 50.7778 27.92C50.7511 28.2133 50.6178 28.4933 50.3778 28.76C50.1111 29.0267 49.8178 29.1867 49.4978 29.24C49.1778 29.32 48.8445 29.3733 48.4978 29.4ZM41.5778 28.76C41.6845 28.7333 41.7645 28.76 41.8178 28.84C41.8978 28.84 41.9778 28.84 42.0578 28.84C42.1378 28.8133 42.2311 28.8 42.3378 28.8C42.3911 28.7733 42.4445 28.7733 42.4978 28.8C43.3511 28.7467 44.2045 28.7067 45.0578 28.68C45.9378 28.6267 46.8045 28.5467 47.6578 28.44C47.7645 28.44 47.9245 28.44 48.1378 28.44C48.4045 28.44 48.6845 28.4267 48.9778 28.4C49.2711 28.3733 49.4978 28.28 49.6578 28.12C49.7911 27.96 49.8578 27.7867 49.8578 27.6C49.8845 27.3867 49.8978 27.1867 49.8978 27C49.8978 26.8933 49.8978 26.8133 49.8978 26.76C49.8711 26.1467 49.8445 25.5333 49.8178 24.92C49.8178 24.3067 49.7911 23.6933 49.7378 23.08C49.7111 22.52 49.6978 21.96 49.6978 21.4C49.6978 20.84 49.7111 20.28 49.7378 19.72C49.7645 19.16 49.7778 18.6133 49.7778 18.08C49.7778 17.5467 49.7645 17 49.7378 16.44C49.6311 15.56 49.5245 14.5867 49.4178 13.52C49.3378 12.4533 49.2845 11.4 49.2578 10.36C49.2578 9.32 49.3378 8.34667 49.4978 7.44C49.5778 6.64 49.6445 5.84 49.6978 5.04C49.7778 4.21333 49.8311 3.4 49.8578 2.6C49.8578 2.54666 49.8578 2.46666 49.8578 2.36C49.8578 2.17333 49.8445 1.98667 49.8178 1.8C49.8178 1.58667 49.7511 1.41333 49.6178 1.28C49.4578 1.12 49.2311 1.05333 48.9378 1.08C48.6711 1.08 48.4045 1.09333 48.1378 1.12C47.8978 1.14667 47.7378 1.16 47.6578 1.16C47.1245 1.18666 46.5911 1.18666 46.0578 1.16C45.5511 1.13333 45.0311 1.10667 44.4978 1.08C44.1511 1.05333 43.8045 1.02666 43.4578 0.999998C43.1378 0.973332 42.8045 0.959999 42.4578 0.959999C42.4045 0.959999 42.2978 0.959999 42.1378 0.959999C41.9511 0.933332 41.7645 0.919999 41.5778 0.919999C41.4178 0.919999 41.2578 0.946665 41.0978 0.999998C41.0711 1.05333 41.0311 1.09333 40.9778 1.12L40.5378 1.32C40.4311 1.48 40.3778 1.66666 40.3778 1.88C40.3778 2.06667 40.3911 2.25333 40.4178 2.44C40.4178 2.57333 40.4178 2.68 40.4178 2.76C40.4178 3.16 40.4178 3.57333 40.4178 4C40.4445 4.42667 40.4711 4.84 40.4978 5.24C40.4978 5.26666 40.4978 5.26666 40.4978 5.24C40.4978 5.29333 40.4978 5.34667 40.4978 5.4C40.4978 5.42666 40.4978 5.46667 40.4978 5.52C40.5245 6.37333 40.5511 7.24 40.5778 8.12C40.6045 8.97333 40.6045 9.82667 40.5778 10.68C40.5245 11.6933 40.4711 12.72 40.4178 13.76C40.3645 14.7733 40.2978 15.7867 40.2178 16.8C40.1111 18.1067 40.0711 19.4267 40.0978 20.76C40.1245 22.0667 40.0978 23.3733 40.0178 24.68C40.0178 24.7333 40.0178 24.7733 40.0178 24.8C39.9911 25.0133 39.9778 25.2267 39.9778 25.44C40.0311 25.4933 40.0311 25.5467 39.9778 25.6C39.9778 25.7867 39.9778 25.9733 39.9778 26.16C39.9778 26.1867 39.9911 26.2133 40.0178 26.24C40.0445 26.32 40.0311 26.3867 39.9778 26.44C39.9778 26.6 39.9778 26.7733 39.9778 26.96C39.9778 26.96 39.9911 26.9733 40.0178 27C40.0445 27.08 40.0178 27.1467 39.9378 27.2C39.9378 27.2533 39.9378 27.32 39.9378 27.4C39.9378 27.5333 39.9378 27.64 39.9378 27.72C39.9645 27.72 39.9911 27.7467 40.0178 27.8C40.0445 27.88 40.0311 27.9467 39.9778 28C40.0045 28.08 40.0311 28.16 40.0578 28.24C40.1111 28.2933 40.1511 28.36 40.1778 28.44C40.2045 28.44 40.2311 28.4533 40.2578 28.48L40.8978 28.76C40.9511 28.76 41.0578 28.8 41.2178 28.88C41.2445 28.88 41.2845 28.88 41.3378 28.88L41.5778 28.76ZM11.28 48.92C11.28 48.92 11.2667 48.92 11.24 48.92L10.96 49L10.32 49.28L9.64 49.48L9.04 49.68C8.93333 49.7333 8.86667 49.7067 8.84 49.6C8.78667 49.4933 8.81333 49.4133 8.92 49.36L9.52 49.12L10.2 48.96L10.8 48.68C10.8 48.68 10.8133 48.68 10.84 48.68C10.84 48.68 10.8933 48.6667 11 48.64C10.9733 48.56 10.9333 48.4933 10.88 48.44C10.8533 48.3867 10.8133 48.3333 10.76 48.28L10.52 48.36L9.84 48.64L9.2 48.88L8.64 49.04C8.53333 49.0933 8.45333 49.0667 8.4 48.96C8.37333 48.8267 8.41333 48.7467 8.52 48.72L9.12 48.52L9.72 48.32L10.36 48.04L10.6 47.96C10.5733 47.9333 10.56 47.92 10.56 47.92C10.5333 47.8133 10.4933 47.6933 10.44 47.56L10.16 47.72L9.52 47.92L8.84 48.16L8.2 48.44C8.09333 48.4667 8.01333 48.4267 7.96 48.32C7.90667 48.2133 7.93333 48.1333 8.04 48.08L8.72 47.84C8.72 47.84 8.72 47.8267 8.72 47.8L9.4 47.6L10.04 47.36L10.32 47.24C10.2933 47.1867 10.28 47.1467 10.28 47.12C10.2267 47.0133 10.1867 46.9067 10.16 46.8L9.96 46.88L9.32 47.08L8.76 47.4L8.04 47.64C7.93333 47.6667 7.85333 47.6267 7.8 47.52C7.77333 47.4133 7.81333 47.3333 7.92 47.28L8.6 47.08L9.16 46.76C9.16 46.76 9.17333 46.76 9.2 46.76L10 46.48C9.94667 46.3467 9.89333 46.2133 9.84 46.08L9.56 46.16L9 46.4L8.32 46.72L7.72 47.04C7.61333 47.0933 7.53333 47.0667 7.48 46.96C7.42667 46.8533 7.45333 46.7733 7.56 46.72L8.16 46.4L8.84 46.08L9.44 45.84C9.44 45.84 9.44 45.8267 9.44 45.8C9.46667 45.8 9.48 45.8 9.48 45.8L9.68 45.76C9.65333 45.6267 9.6 45.4933 9.52 45.36L9.32 45.44L8.72 45.64L8.16 45.84L7.48 46.12C7.34667 46.1733 7.26667 46.1333 7.24 46C7.18667 45.8933 7.21333 45.8267 7.32 45.8L8.04 45.52L8.6 45.28C8.62667 45.28 8.64 45.28 8.64 45.28L9.36 45.04C9.33333 44.9867 9.29333 44.9333 9.24 44.88C9.21333 44.8267 9.14667 44.7867 9.04 44.76L8.32 45.08L7.68 45.32C7.68 45.32 7.68 45.3333 7.68 45.36C7.65333 45.36 7.64 45.36 7.64 45.36L7.04 45.52C6.93333 45.5733 6.85333 45.5333 6.8 45.4C6.77333 45.2933 6.81333 45.2267 6.92 45.2L7.56 45L8.2 44.76L8.88 44.44C8.90667 44.44 8.94667 44.4267 9 44.4C8.92 44.24 8.82667 44.1333 8.72 44.08L8.08 44.36L7.52 44.64L6.92 44.92C6.81333 44.9733 6.73333 44.9467 6.68 44.84C6.62667 44.7333 6.65333 44.6533 6.76 44.6L7.32 44.32C7.32 44.2933 7.33333 44.28 7.36 44.28L7.92 44.04L8.72 43.72C8.66667 43.64 8.62667 43.5733 8.6 43.52C8.57333 43.44 8.50667 43.3867 8.4 43.36L7.8 43.56L7.16 43.76L6.56 43.96C6.45333 44.0133 6.38667 43.9867 6.36 43.88C6.30667 43.7733 6.33333 43.6933 6.44 43.64L7.04 43.4L7.68 43.24L8.28 43C8.28 43 8.32 42.9867 8.4 42.96C8.37333 42.8533 8.33333 42.72 8.28 42.56L8.08 42.64L7.48 42.92L6.76 43.12L6.12 43.4C6.01333 43.4267 5.93333 43.3867 5.88 43.28C5.82667 43.1733 5.86667 43.0933 6 43.04L6.64 42.8C6.64 42.8 6.65333 42.7867 6.68 42.76L7.36 42.6L7.92 42.32C7.92 42.32 7.92 42.3067 7.92 42.28C7.94667 42.28 7.96 42.28 7.96 42.28L8.16 42.2C8.10667 42.0667 8 41.9867 7.84 41.96L7.28 42.24C7.25333 42.2667 7.24 42.28 7.24 42.28L6.56 42.44L5.88 42.76C5.77333 42.8133 5.69333 42.7733 5.64 42.64C5.58667 42.5333 5.61333 42.4533 5.72 42.4L6.44 42.12L7.12 41.92L7.68 41.64C7.70667 41.64 7.78667 41.6 7.92 41.52C7.89333 41.4667 7.85333 41.4133 7.8 41.36C7.74667 41.3067 7.66667 41.2667 7.56 41.24L6.88 41.56L6.2 41.72L5.52 41.96C5.41333 41.9867 5.33333 41.9467 5.28 41.84C5.25333 41.7333 5.29333 41.6533 5.4 41.6L6.08 41.4L6.76 41.2L7.6 40.84C7.57333 40.76 7.53333 40.6933 7.48 40.64C7.45333 40.5867 7.37333 40.5467 7.24 40.52L6.6 40.76L5.92 40.92L5.28 41.16C5.14667 41.2133 5.06667 41.1733 5.04 41.04C5.01333 40.9333 5.05333 40.8667 5.16 40.84L5.8 40.6C5.82667 40.6 5.84 40.6 5.84 40.6L6.48 40.4L7.24 40.12C7.21333 40.0933 7.18667 40.0667 7.16 40.04C7.16 40.04 7.16 40.0267 7.16 40C7.10667 39.8933 7.01333 39.8267 6.88 39.8L6.2 40.12L5.52 40.4C5.52 40.4 5.52 40.4133 5.52 40.44L4.92 40.6C4.81333 40.6533 4.74667 40.6133 4.72 40.48C4.66667 40.3733 4.70667 40.3067 4.84 40.28L5.4 40.08L6.04 39.8L6.76 39.48C6.76 39.48 6.78667 39.4667 6.84 39.44C6.78667 39.3333 6.74667 39.2133 6.72 39.08C6.69333 39.08 6.68 39.08 6.68 39.08L6.12 39.28L5.56 39.52L4.96 39.72C4.85333 39.7733 4.77333 39.7467 4.72 39.64C4.69333 39.5333 4.73333 39.4533 4.84 39.4L5.4 39.16L6 38.96L6.56 38.76C6.50667 38.6267 6.44 38.48 6.36 38.32L5.8 38.52L5.2 38.76L4.6 39C4.46667 39.0267 4.38667 38.9867 4.36 38.88C4.30667 38.7733 4.34667 38.6933 4.48 38.64L5.08 38.4L5.64 38.2L6.24 37.96C6.16 37.8 6.09333 37.6933 6.04 37.64L5.32 37.92L4.68 38.12L3.96 38.44C3.85333 38.4667 3.77333 38.4267 3.72 38.32C3.69333 38.2133 3.73333 38.1333 3.84 38.08L4.52 37.8C4.52 37.8 4.53333 37.8 4.56 37.8C4.56 37.7733 4.56 37.76 4.56 37.76L5.2 37.6L5.88 37.28C5.88 37.28 5.89333 37.28 5.92 37.28C5.92 37.28 5.93333 37.28 5.96 37.28C5.90667 37.1733 5.86667 37.08 5.84 37C5.81333 37 5.8 37 5.8 37L5.2 37.24L4.52 37.4L3.92 37.68C3.81333 37.7333 3.73333 37.6933 3.68 37.56C3.62667 37.4533 3.65333 37.3867 3.76 37.36L4.4 37.08C4.42667 37.08 4.44 37.08 4.44 37.08L5.08 36.88L5.68 36.64C5.65333 36.56 5.61333 36.4933 5.56 36.44C5.53333 36.36 5.49333 36.28 5.44 36.2L4.88 36.52C4.85333 36.52 4.84 36.52 4.84 36.52L4.16 36.72L3.52 37C3.38667 37.0533 3.30667 37.0133 3.28 36.88C3.22667 36.7733 3.25333 36.7067 3.36 36.68L4.04 36.4L4.72 36.16L5.28 35.88C5.28 35.88 5.29333 35.88 5.32 35.88C5.32 35.88 5.32 35.8667 5.32 35.84C5.26667 35.7333 5.21333 35.64 5.16 35.56L4.64 35.72L4.04 35.92L3.36 36.24C3.25333 36.2933 3.17333 36.2667 3.12 36.16C3.06667 36.0533 3.10667 35.9733 3.24 35.92L3.88 35.6C3.90667 35.6 3.92 35.6 3.92 35.6L4.52 35.36L5 35.2C4.97333 35.0933 4.92 34.9733 4.84 34.84L4.2 35.08L3.64 35.4C3.64 35.4 3.62667 35.4 3.6 35.4L3 35.56C2.86667 35.6133 2.78667 35.5733 2.76 35.44C2.73333 35.3333 2.77333 35.2667 2.88 35.24L3.48 35.04L4.04 34.76C4.06667 34.76 4.08 34.76 4.08 34.76L4.72 34.48C4.69333 34.4 4.65333 34.3333 4.6 34.28C4.57333 34.2 4.54667 34.12 4.52 34.04L3.96 34.2L3.28 34.52L2.56 34.76C2.45333 34.7867 2.38667 34.7467 2.36 34.64C2.30667 34.5067 2.33333 34.4267 2.44 34.4L3.16 34.16L3.84 33.88L4.4 33.68C4.32 33.5467 4.26667 33.4533 4.24 33.4L3.56 33.64L2.84 33.84L2.24 34.08C2.13333 34.1067 2.05333 34.0667 2 33.96C1.97333 33.8533 2.01333 33.7733 2.12 33.72L2.72 33.52C2.72 33.52 2.73333 33.5067 2.76 33.48L3.44 33.32L4.12 33.04C4.04 32.88 3.97333 32.7733 3.92 32.72L3.36 32.92C3.36 32.92 3.34667 32.9333 3.32 32.96C3.37333 32.9333 3.37333 32.9333 3.32 32.96L2.64 33.12L2.04 33.32C1.93333 33.3467 1.86667 33.3067 1.84 33.2C1.78667 33.0933 1.82667 33.0133 1.96 32.96L2.52 32.8L3.24 32.6L3.84 32.36C3.78667 32.28 3.73333 32.1867 3.68 32.08C3.68 32.0533 3.68 32.0267 3.68 32L3.12 32.24L2.56 32.48L1.84 32.8C1.73333 32.8533 1.65333 32.8267 1.6 32.72C1.57333 32.5867 1.61333 32.5067 1.72 32.48L2.4 32.16L3 31.88L3.52 31.68C3.49333 31.6267 3.46667 31.5733 3.44 31.52C3.41333 31.44 3.38667 31.3733 3.36 31.32L2.76 31.48L2.08 31.72L1.4 32.04C1.29333 32.0933 1.21333 32.0667 1.16 31.96C1.10667 31.8533 1.13333 31.7733 1.24 31.72L1.96 31.4L2.64 31.12L3.2 30.96C3.12 30.8 3.05333 30.64 3 30.48L2.48 30.64L1.84 30.88L1.2 31.08C1.09333 31.1333 1.02667 31.1067 1 31C0.946667 30.8667 0.973333 30.7867 1.08 30.76L1.72 30.52L2.4 30.28L2.88 30.16C2.85333 30.08 2.84 30.0133 2.84 29.96C2.81333 29.9067 2.78667 29.84 2.76 29.76L2.04 30.08L1.4 30.36L0.76 30.64C0.653333 30.6933 0.573333 30.6667 0.52 30.56C0.52 30.5333 0.52 30.4933 0.52 30.44C0.493333 30.36 0.546667 30.28 0.68 30.2C0.573333 30.2533 0.493333 30.2267 0.44 30.12C0.386667 30.0133 0.426667 29.9333 0.56 29.88L1.24 29.56C1.26667 29.56 1.28 29.56 1.28 29.56L1.92 29.36L2.6 29.12C2.6 29.12 2.65333 29.1067 2.76 29.08C2.78667 29.0267 2.8 28.9867 2.8 28.96L2.52 29.08C2.52 29.08 2.50667 29.08 2.48 29.08L1.88 29.24C1.77333 29.2933 1.69333 29.2533 1.64 29.12C1.61333 29.0133 1.65333 28.9467 1.76 28.92L2.4 28.72L3.04 28.48C3.25333 28.2133 3.54667 28.0533 3.92 28C4.29333 27.92 4.66667 27.8533 5.04 27.8C5.78667 27.72 6.53333 27.6533 7.28 27.6C8.05333 27.5467 8.81333 27.5067 9.56 27.48C9.66667 27.48 9.76 27.48 9.84 27.48C9.92 27.4533 10.0133 27.44 10.12 27.44C10.4933 27.4133 10.8667 27.4133 11.24 27.44C11.6133 27.44 11.96 27.5467 12.28 27.76C12.44 27.8667 12.56 28 12.64 28.16C12.7467 28.32 12.8533 28.4933 12.96 28.68C13.0667 28.8933 13.16 29.12 13.24 29.36C13.32 29.6 13.4 29.84 13.48 30.08C13.8533 30.6667 14.12 31.3067 14.28 32C14.44 32.6933 14.6 33.3867 14.76 34.08L15.24 33.96L15.88 33.76L16.68 33.48C16.7067 33.4 16.7333 33.3067 16.76 33.2L16.2 33.44L15.64 33.64L14.96 33.84C14.8533 33.8667 14.7733 33.8267 14.72 33.72C14.6933 33.6133 14.7467 33.5333 14.88 33.48L15.52 33.32L16.08 33.08L16.92 32.76C16.9733 32.6267 17.0133 32.5467 17.04 32.52L16.6 32.64L16.04 32.88L15.32 33.12C15.2133 33.1733 15.1467 33.1333 15.12 33C15.0667 32.8933 15.1067 32.8267 15.24 32.8L15.92 32.56L16.48 32.32C16.48 32.32 16.48 32.3067 16.48 32.28C16.5067 32.28 16.52 32.28 16.52 32.28L17.2 32.04C17.2267 31.9067 17.2667 31.7867 17.32 31.68L16.8 31.92C16.7733 31.92 16.76 31.92 16.76 31.92L16.16 32.12L15.48 32.32C15.3733 32.3733 15.3067 32.3333 15.28 32.2C15.2267 32.0933 15.2667 32.0267 15.4 32L16.04 31.76L16.64 31.56L17.28 31.32C17.28 31.32 17.3467 31.2933 17.48 31.24C17.5067 31.16 17.5467 31.0667 17.6 30.96L17.08 31.08L16.48 31.36C16.48 31.36 16.4667 31.3733 16.44 31.4L15.84 31.6C15.7067 31.6533 15.6267 31.6267 15.6 31.52C15.5467 31.3867 15.5867 31.3067 15.72 31.28L16.32 31.04L16.92 30.76C16.92 30.76 16.9333 30.76 16.96 30.76C16.96 30.7333 16.96 30.72 16.96 30.72L17.72 30.52C17.7733 30.44 17.8133 30.36 17.84 30.28L17.28 30.44L16.68 30.72C16.68 30.72 16.6667 30.72 16.64 30.72L16 30.88C15.8667 30.9333 15.7867 30.8933 15.76 30.76C15.7333 30.6533 15.7733 30.5867 15.88 30.56L16.52 30.36L17.12 30.12C17.12 30.12 17.1333 30.12 17.16 30.12C17.16 30.0933 17.16 30.08 17.16 30.08L18 29.84C18 29.8133 18 29.8 18 29.8C18 29.8 18.0133 29.8 18.04 29.8C18.04 29.7467 18.0667 29.6667 18.12 29.56L17.44 29.72L16.72 29.96L16.16 30.16C16.0533 30.2133 15.9733 30.1867 15.92 30.08C15.8933 29.9733 15.9333 29.8933 16.04 29.84L16.6 29.6C16.6267 29.6 16.64 29.6 16.64 29.6C16.6133 29.5733 16.6 29.56 16.6 29.56C16.5467 29.4533 16.5733 29.3733 16.68 29.32L17.24 29C17.24 29 17.2533 29 17.28 29L17.88 28.76L18.6 28.52C18.7333 28.3333 18.8933 28.1733 19.08 28.04C19.3467 27.8533 19.6267 27.7467 19.92 27.72C20.2133 27.6667 20.52 27.64 20.84 27.64C20.92 27.64 20.9867 27.64 21.04 27.64C22.0533 27.6133 23.0667 27.56 24.08 27.48C24.4533 27.4533 24.84 27.4267 25.24 27.4C25.64 27.3733 26.0267 27.36 26.4 27.36C26.48 27.36 26.5867 27.3467 26.72 27.32C26.8533 27.2933 26.9733 27.28 27.08 27.28C27.2133 27.28 27.36 27.32 27.52 27.4C27.92 27.64 28.2667 27.92 28.56 28.24C28.8533 28.5333 28.8933 28.9467 28.68 29.48C28.6267 29.6133 28.5733 29.7467 28.52 29.88C28.4667 29.9867 28.4133 30.1067 28.36 30.24C28.3067 30.3733 28.2533 30.5067 28.2 30.64C28.1467 30.7467 28.08 30.8667 28 31C27.84 31.3733 27.68 31.76 27.52 32.16C27.36 32.5333 27.1867 32.9067 27 33.28C27 33.28 26.9867 33.3067 26.96 33.36C26.9067 33.44 26.88 33.48 26.88 33.48C26.64 33.72 26.44 34.0667 26.28 34.52C26.12 34.9467 25.9733 35.32 25.84 35.64C25.6267 36.1733 25.3867 36.8533 25.12 37.68C24.88 38.48 24.6133 39.32 24.32 40.2C24.0267 41.08 23.7067 41.9067 23.36 42.68C23.04 43.4267 22.6933 44 22.32 44.4C22.1067 44.96 21.88 45.52 21.64 46.08C21.4267 46.64 21.2 47.1867 20.96 47.72C20.8267 48.0133 20.68 48.32 20.52 48.64C20.3867 48.9333 20.2 49.1733 19.96 49.36C19.6133 49.5733 19.2533 49.68 18.88 49.68C18.5067 49.7067 18.1333 49.7067 17.76 49.68C17.7067 49.6533 17.6667 49.64 17.64 49.64L17.2 49.8C17.1733 49.8 17.12 49.8 17.04 49.8L16.4 50.08C16.2933 50.1333 16.2133 50.1067 16.16 50C16.1067 49.8933 16.1333 49.8133 16.24 49.76L16.56 49.64L16.04 49.8L15.44 49.96C15.3333 50.0133 15.2533 49.9733 15.2 49.84L14.6 50.04C14.4933 50.0933 14.4133 50.0667 14.36 49.96L13.92 50.16C13.8133 50.2133 13.7333 50.1867 13.68 50.08C13.6267 49.9733 13.6533 49.8933 13.76 49.84L14.12 49.68L13.72 49.84L13.12 50.08C13.04 50.1333 12.9733 50.12 12.92 50.04L12.48 50.2C12.3733 50.2533 12.2933 50.2267 12.24 50.12C12.2133 50.04 12.1867 50 12.16 50C12.1333 50 12.12 50 12.12 50L11.44 50.2C11.3333 50.2533 11.2533 50.2267 11.2 50.12C11.2 50.0667 11.2 50.0133 11.2 49.96L10.56 50.12C10.4267 50.1733 10.3467 50.1333 10.32 50C10.32 49.9467 10.3333 49.8933 10.36 49.84L10.08 49.92C10 49.9467 9.94667 49.9467 9.92 49.92C9.84 49.8933 9.78667 49.8533 9.76 49.8C9.73333 49.6933 9.77333 49.6133 9.88 49.56L10.44 49.32C10.44 49.32 10.4533 49.32 10.48 49.32L11.08 49.16L11.28 48.92ZM3.84 30C3.84 30.0267 3.84 30.04 3.84 30.04C3.84 30.04 3.84 30.0533 3.84 30.08C3.94667 30.3467 4.06667 30.6133 4.2 30.88C4.33333 31.1467 4.46667 31.4133 4.6 31.68C4.81333 32.2133 5.02667 32.76 5.24 33.32C5.48 33.8533 5.70667 34.3867 5.92 34.92C6.32 35.6667 6.65333 36.44 6.92 37.24C7.21333 38.04 7.57333 38.8 8 39.52C8.48 40.32 8.84 41.1867 9.08 42.12C9.34667 43.0267 9.73333 43.8667 10.24 44.64C10.24 44.64 10.24 44.6533 10.24 44.68C10.2667 44.68 10.28 44.68 10.28 44.68C10.44 45.0267 10.5867 45.3733 10.72 45.72C10.88 46.0667 11.0267 46.4267 11.16 46.8C11.2133 46.9067 11.2533 47.0267 11.28 47.16C11.3333 47.2667 11.3867 47.3733 11.44 47.48C11.4933 47.6133 11.5467 47.7333 11.6 47.84C11.68 47.9467 11.76 48.0533 11.84 48.16L12.48 48.56C13.2267 48.5333 13.9867 48.5333 14.76 48.56C15.56 48.5867 16.3333 48.6133 17.08 48.64C17.1067 48.64 17.1333 48.64 17.16 48.64C17.1867 48.64 17.2133 48.64 17.24 48.64C17.32 48.6667 17.4 48.68 17.48 48.68C17.5867 48.68 17.68 48.6933 17.76 48.72C18 48.7467 18.24 48.76 18.48 48.76C18.7467 48.76 19.0267 48.7067 19.32 48.6C19.3467 48.5733 19.3733 48.56 19.4 48.56C19.56 48.4267 19.6933 48.24 19.8 48C19.9067 47.76 20 47.5333 20.08 47.32C20.32 46.7867 20.56 46.24 20.8 45.68C21.04 45.0933 21.2667 44.52 21.48 43.96C21.48 43.96 21.48 43.9333 21.48 43.88C21.5067 43.8533 21.52 43.84 21.52 43.84C22.0267 43.3333 22.4533 42.5867 22.8 41.6C23.1733 40.6133 23.5067 39.5467 23.8 38.4C24.12 37.2533 24.4667 36.1733 24.84 35.16C25.2133 34.1467 25.6533 33.3733 26.16 32.84C26.32 32.4667 26.48 32.0933 26.64 31.72C26.8 31.3467 26.96 30.9733 27.12 30.6C27.2 30.4933 27.2667 30.3733 27.32 30.24C27.3733 30.1067 27.4267 29.9867 27.48 29.88C27.5333 29.7467 27.5867 29.6267 27.64 29.52C27.6933 29.3867 27.7467 29.2533 27.8 29.12C27.88 28.9067 27.84 28.7467 27.68 28.64C27.52 28.5067 27.36 28.4 27.2 28.32C27.12 28.2933 27.0667 28.2667 27.04 28.24C26.9867 28.2133 26.8533 28.2267 26.64 28.28C26.5333 28.3067 26.4667 28.32 26.44 28.32C26.0667 28.32 25.68 28.3333 25.28 28.36C24.9067 28.3867 24.52 28.4133 24.12 28.44C23.1067 28.52 22.0933 28.5733 21.08 28.6C21.0267 28.6 20.9333 28.6 20.8 28.6C20.5867 28.6 20.3733 28.6133 20.16 28.64C19.9733 28.64 19.8 28.6933 19.64 28.8C19.4267 28.96 19.2667 29.1733 19.16 29.44C19.08 29.68 19 29.9067 18.92 30.12C18.68 30.7333 18.4533 31.3467 18.24 31.96C18.0267 32.5733 17.8133 33.1867 17.6 33.8C17.3867 34.3867 17.1867 34.9733 17 35.56C16.8133 36.1467 16.6133 36.72 16.4 37.28C16.32 37.52 16.24 37.76 16.16 38C16.08 38.2133 16 38.4267 15.92 38.64C15.8933 38.6933 15.84 38.7467 15.76 38.8C15.68 38.8533 15.6133 38.8667 15.56 38.84C15.3733 38.8133 15.2533 38.76 15.2 38.68C15.1467 38.5733 15.12 38.4533 15.12 38.32C15.0133 38.3467 14.9733 38.3467 15 38.32C15.0267 38.24 15.0533 38.16 15.08 38.08C15.08 38.0533 15.08 38.0133 15.08 37.96C15.0533 37.96 15.0267 37.9333 15 37.88C15 37.8533 15 37.8133 15 37.76C14.8933 37.44 14.8 37.1467 14.72 36.88C14.6667 36.88 14.6267 36.84 14.6 36.76C14.5733 36.7067 14.5867 36.6533 14.64 36.6C14.6133 36.6 14.6 36.6 14.6 36.6C14.6 36.5733 14.6 36.56 14.6 36.56C14.4933 36.6133 14.4267 36.5867 14.4 36.48C14.3467 36.3733 14.3733 36.2933 14.48 36.24C14.4267 36.1067 14.36 35.96 14.28 35.8C14.2533 35.7733 14.24 35.7333 14.24 35.68C14.2133 35.6533 14.2 35.6267 14.2 35.6C13.9333 34.7733 13.72 33.9067 13.56 33C13.4 32.0933 13.0933 31.2667 12.64 30.52C12.6133 30.4933 12.6 30.48 12.6 30.48C12.52 30.2667 12.44 30.04 12.36 29.8C12.3067 29.56 12.2267 29.3333 12.12 29.12C12.0667 29.0133 12 28.9067 11.92 28.8C11.8667 28.6933 11.8 28.6133 11.72 28.56C11.5067 28.4 11.2533 28.32 10.96 28.32C10.6667 28.32 10.3867 28.3467 10.12 28.4C9.88 28.4267 9.70667 28.44 9.6 28.44C8.85333 28.4667 8.10667 28.5067 7.36 28.56C6.61333 28.6133 5.86667 28.68 5.12 28.76C5.06667 28.76 4.98667 28.7733 4.88 28.8C4.61333 28.8 4.34667 28.84 4.08 28.92C3.81333 28.9733 3.69333 29.16 3.72 29.48C3.74667 29.64 3.78667 29.8133 3.84 30ZM18.28 29.08C18.3067 29.0533 18.3333 29.0133 18.36 28.96L18 29.08L17.32 29.36L18.04 29.2L18.28 29.08ZM16.44 34.2C16.4667 34.1467 16.4933 34.0533 16.52 33.92L16 34.12L15.32 34.28L14.84 34.44C14.8667 34.4933 14.8933 34.56 14.92 34.64C14.9467 34.6933 15.0133 34.7467 15.12 34.8L15.68 34.56L16.28 34.28C16.28 34.28 16.3333 34.2533 16.44 34.2ZM15.76 34.92L16.24 34.8C16.24 34.7733 16.24 34.76 16.24 34.76C16.2667 34.7333 16.28 34.7067 16.28 34.68L15.84 34.88C15.84 34.9067 15.8133 34.92 15.76 34.92ZM16.08 35.2L15.64 35.32L15.24 35.56C15.2933 35.6933 15.36 35.7867 15.44 35.84L15.96 35.6C16.0133 35.4667 16.0533 35.3333 16.08 35.2ZM15.52 36.2C15.52 36.2267 15.52 36.2533 15.52 36.28L15.76 36.24C15.76 36.1867 15.7733 36.1333 15.8 36.08L15.52 36.2ZM11.84 49.4L11.24 49.56L10.88 49.68L11.16 49.6L11.84 49.4ZM56.3953 49.2L55.8753 49.44L55.2353 49.64L54.5953 49.92C54.4886 49.9467 54.422 49.92 54.3953 49.84L53.8353 50.04L53.1953 50.28C53.0886 50.3333 53.0086 50.3067 52.9553 50.2C52.9286 50.0933 52.9686 50.0133 53.0753 49.96L53.5553 49.76C53.5553 49.7067 53.6486 49.6533 53.8353 49.6L54.0753 49.52L53.7153 49.6L53.1153 49.8L52.4753 50.04C52.3686 50.0933 52.302 50.0667 52.2753 49.96L51.6353 50.16C51.5286 50.2133 51.462 50.1867 51.4353 50.08C51.4086 50 51.4086 49.9467 51.4353 49.92L50.9553 50.12C50.8486 50.1733 50.7686 50.1467 50.7153 50.04C50.6886 49.96 50.6886 49.8933 50.7153 49.84L50.2753 50.04C50.1953 50.0933 50.1286 50.08 50.0753 50L49.5953 50.16C49.462 50.2133 49.382 50.1867 49.3553 50.08C49.3553 50.0533 49.3553 50.04 49.3553 50.04L48.8353 50.16C48.702 50.2133 48.622 50.1733 48.5953 50.04C48.5686 49.9333 48.6086 49.8667 48.7153 49.84L49.3953 49.64L50.0353 49.36C49.982 49.36 49.942 49.3467 49.9153 49.32L49.3553 49.52L48.7553 49.72L48.0753 50C47.9686 50.0533 47.8886 50.0267 47.8353 49.92C47.782 49.8133 47.8086 49.7333 47.9153 49.68L48.5953 49.36C48.622 49.36 48.6353 49.36 48.6353 49.36L49.3553 49.16C49.2753 49.1067 49.182 49.08 49.0753 49.08C49.0753 49.08 49.062 49.08 49.0353 49.08L48.3953 49.28L47.6753 49.48L46.9953 49.64C46.862 49.6933 46.782 49.6533 46.7553 49.52C46.7286 49.4133 46.7686 49.3467 46.8753 49.32L47.5953 49.12L48.2753 48.92L48.8753 48.76C48.7953 48.68 48.7153 48.6 48.6353 48.52C48.582 48.44 48.5153 48.36 48.4353 48.28L47.7553 48.56L47.1953 48.76L46.5553 49.04C46.4486 49.0933 46.3686 49.0667 46.3153 48.96C46.262 48.8533 46.2886 48.7733 46.3953 48.72L47.0353 48.44C47.0353 48.44 47.0353 48.4267 47.0353 48.4C47.062 48.4 47.0753 48.4 47.0753 48.4L47.6353 48.24L48.3553 47.92C48.302 47.7867 48.2486 47.6933 48.1953 47.64C48.1686 47.64 48.1553 47.64 48.1553 47.64L47.5153 47.84L46.8353 48.04L46.2353 48.2C46.1286 48.2533 46.0486 48.2133 45.9953 48.08C45.9686 47.9733 46.0086 47.9067 46.1153 47.88L46.7553 47.68L47.4353 47.48L48.1153 47.28C48.1153 47.28 48.1153 47.2667 48.1153 47.24C48.062 47.1067 47.9953 47 47.9153 46.92L47.3153 47.2L46.6353 47.48L45.9953 47.68C45.8886 47.7333 45.822 47.7067 45.7953 47.6C45.742 47.4667 45.7686 47.3867 45.8753 47.36L46.5153 47.12L47.1953 46.88L47.8353 46.56C47.782 46.3733 47.7153 46.24 47.6353 46.16L46.9553 46.48C46.9286 46.48 46.9153 46.48 46.9153 46.48L46.3153 46.68L45.6353 46.84C45.5286 46.8667 45.462 46.8267 45.4353 46.72C45.4086 46.6133 45.4486 46.5467 45.5553 46.52L46.1953 46.32L46.7953 46.12L47.5153 45.84C47.5153 45.84 47.5286 45.8267 47.5553 45.8C47.502 45.6667 47.3953 45.6 47.2353 45.6L46.6753 45.84L45.9553 46.08L45.2753 46.32C45.142 46.3467 45.062 46.3067 45.0353 46.2C45.0086 46.0933 45.0486 46.0267 45.1553 46L45.8353 45.76L46.5553 45.48L47.3153 45.2C47.262 45.0667 47.1953 44.9733 47.1153 44.92L46.5153 45.24L45.7953 45.48L45.1553 45.68C45.022 45.7067 44.942 45.6667 44.9153 45.56C44.8886 45.4533 44.9286 45.3733 45.0353 45.32L45.6753 45.16L46.3553 44.88L47.0353 44.56C47.0086 44.48 46.9686 44.4 46.9153 44.32C46.8886 44.24 46.8486 44.1733 46.7953 44.12L46.1553 44.44L45.5553 44.68L44.9153 44.96C44.8086 45.0133 44.7286 44.9733 44.6753 44.84C44.622 44.7333 44.662 44.6667 44.7953 44.64L45.3953 44.36L45.9953 44.08L46.6353 43.8C46.662 43.7733 46.6753 43.76 46.6753 43.76C46.6486 43.68 46.6086 43.5733 46.5553 43.44L45.8353 43.68L45.1553 43.92L44.7953 44.12C44.662 44.4933 44.5286 44.8667 44.3953 45.24C44.2886 45.6133 44.1553 45.9867 43.9953 46.36C43.8353 46.8133 43.6753 47.2533 43.5153 47.68C43.462 47.8133 43.4086 47.9467 43.3553 48.08C43.3286 48.1867 43.2753 48.3067 43.1953 48.44C43.0886 48.6267 42.9686 48.8133 42.8353 49C42.702 49.16 42.542 49.3067 42.3553 49.44C42.062 49.6267 41.7553 49.7333 41.4353 49.76C41.1153 49.7867 40.782 49.7867 40.4353 49.76C40.3553 49.76 40.302 49.76 40.2753 49.76C39.8753 49.76 39.502 49.7467 39.1553 49.72L38.8753 49.88L38.1553 50.16C38.0486 50.2133 37.9686 50.1867 37.9153 50.08L37.7153 50.2C37.6086 50.2533 37.5153 50.2267 37.4353 50.12C37.382 50.0133 37.4086 49.9333 37.5153 49.88L37.9153 49.68C37.862 49.68 37.7953 49.68 37.7153 49.68L37.4353 49.8L36.7953 49.96C36.7153 50.0133 36.6486 49.9867 36.5953 49.88L36.0353 50.08C35.9286 50.1333 35.862 50.1067 35.8353 50C35.8086 49.9733 35.7953 49.96 35.7953 49.96L35.2753 50.16C35.142 50.2133 35.062 50.1867 35.0353 50.08C35.0086 50.0533 34.9686 50.04 34.9153 50.04C34.8086 50.0933 34.7286 50.0667 34.6753 49.96L34.0353 50.12C33.9286 50.1733 33.862 50.1333 33.8353 50C33.8353 49.9733 33.8353 49.96 33.8353 49.96L33.3153 50.12C33.2086 50.1733 33.1286 50.1467 33.0753 50.04C33.0486 49.9333 33.0753 49.8533 33.1553 49.8L32.5953 50C32.4886 50.0533 32.4086 50.0267 32.3553 49.92C32.3286 49.84 32.342 49.7733 32.3953 49.72C32.3686 49.6133 32.4086 49.5467 32.5153 49.52L33.2353 49.32L33.7553 49.16C33.702 49.1333 33.6486 49.12 33.5953 49.12L32.9153 49.32L32.3553 49.52L31.7553 49.72C31.6486 49.7467 31.582 49.7067 31.5553 49.6C31.502 49.4667 31.542 49.3867 31.6753 49.36L32.2353 49.16L32.8353 49L33.3953 48.8C33.342 48.6933 33.2886 48.5867 33.2353 48.48L32.9153 48.6L32.1953 48.84L31.5153 49.12L30.9153 49.44C30.8353 49.4933 30.7553 49.4667 30.6753 49.36C30.622 49.2533 30.6486 49.1733 30.7553 49.12L31.3553 48.8L32.0753 48.48L32.7953 48.28L33.1153 48.16C33.062 48.0267 33.0086 47.8667 32.9553 47.68L32.5953 47.8L31.9153 47.96L31.3153 48.28C31.2886 48.28 31.2753 48.28 31.2753 48.28L30.6353 48.48C30.5286 48.5333 30.4486 48.5067 30.3953 48.4C30.3686 48.2667 30.4086 48.1867 30.5153 48.16L31.1553 47.92L31.7553 47.64C31.7553 47.64 31.7686 47.64 31.7953 47.64C31.7953 47.6133 31.7953 47.6 31.7953 47.6L32.5153 47.44L32.8753 47.32C32.8753 47.2133 32.862 47.0933 32.8353 46.96L32.5953 47.04L31.8753 47.28L31.3153 47.52C31.2886 47.5467 31.2886 47.56 31.3153 47.56L30.6753 47.72C30.5686 47.7467 30.4886 47.7067 30.4353 47.6C30.4086 47.4933 30.4486 47.4267 30.5553 47.4L31.1953 47.2L31.7553 46.96C31.7553 46.96 31.7553 46.9467 31.7553 46.92L32.4753 46.72L32.7953 46.6C32.7686 46.44 32.742 46.3067 32.7153 46.2L32.4753 46.32L31.8753 46.6C31.8486 46.6267 31.8353 46.64 31.8353 46.64L31.1553 46.84L30.4353 47.04C30.3286 47.0667 30.262 47.0267 30.2353 46.92C30.2086 46.7867 30.2486 46.7067 30.3553 46.68L31.0353 46.52L31.7153 46.28L32.3153 46L32.6353 45.84C32.6086 45.68 32.582 45.5333 32.5553 45.4L32.2353 45.52L31.6353 45.72L31.0353 46L30.3953 46.2C30.2886 46.2267 30.222 46.1867 30.1953 46.08C30.1686 45.9467 30.2086 45.8667 30.3153 45.84L30.9153 45.64L31.4753 45.4C31.502 45.4 31.5153 45.4 31.5153 45.4L32.1153 45.16L32.4753 45.04C32.4486 44.9333 32.422 44.8 32.3953 44.64L32.1953 44.72L31.5953 45.04L30.9153 45.32L30.2753 45.56C30.1686 45.6133 30.0886 45.5867 30.0353 45.48C29.982 45.3467 30.022 45.2667 30.1553 45.24L30.7953 44.96L31.4353 44.72L32.0353 44.4L32.3153 44.28C32.3153 44.2267 32.302 44.1733 32.2753 44.12C32.2486 44.04 32.182 43.9867 32.0753 43.96L31.4353 44.28L30.7553 44.56C30.7286 44.56 30.7153 44.56 30.7153 44.56L30.1553 44.76C30.0486 44.7867 29.9686 44.7467 29.9153 44.64C29.8886 44.5333 29.9286 44.4533 30.0353 44.4L30.5953 44.24L31.3153 43.92L31.9153 43.64C31.942 43.6133 31.9553 43.6 31.9553 43.6L32.1553 43.56C32.1286 43.4 32.0886 43.2933 32.0353 43.24C32.0353 43.24 32.0353 43.2533 32.0353 43.28L31.3953 43.48L30.7153 43.68L30.1553 43.96C30.0486 44.04 29.9686 44.0267 29.9153 43.92C29.8353 43.8133 29.8486 43.72 29.9553 43.64L30.5553 43.36C30.5553 43.36 30.5686 43.36 30.5953 43.36C30.5953 43.3333 30.5953 43.32 30.5953 43.32L31.2753 43.16L31.9953 42.88C31.942 42.72 31.8886 42.5467 31.8353 42.36L31.2353 42.6L30.6353 42.88L29.9953 43.04C29.8886 43.0933 29.822 43.0533 29.7953 42.92C29.742 42.8133 29.782 42.7467 29.9153 42.72L30.5153 42.52L31.0753 42.28L31.7153 42.04C31.6886 41.96 31.6753 41.8667 31.6753 41.76L31.1953 41.96L30.5953 42.2L29.9153 42.44C29.782 42.4667 29.702 42.4267 29.6753 42.32C29.6486 42.2133 29.6886 42.1333 29.7953 42.08L30.4753 41.88L31.0353 41.6C31.062 41.6 31.0753 41.6 31.0753 41.6L31.5953 41.44C31.542 41.2533 31.502 41.0667 31.4753 40.88L30.9953 41L30.3953 41.2L29.7153 41.4C29.582 41.4267 29.502 41.3867 29.4753 41.28C29.4486 41.1467 29.4886 41.0667 29.5953 41.04L30.3153 40.84L30.8753 40.68L31.3953 40.52C31.3953 40.3867 31.382 40.2533 31.3553 40.12L30.9153 40.32L30.3153 40.56L29.7153 40.8C29.6086 40.8533 29.5286 40.8267 29.4753 40.72C29.4486 40.6133 29.4886 40.5333 29.5953 40.48L30.1553 40.2C30.182 40.2 30.1953 40.2 30.1953 40.2L30.7953 40L31.3153 39.76C31.2886 39.6533 31.262 39.52 31.2353 39.36L30.7953 39.52L30.1953 39.76L29.4753 40C29.3686 40.0267 29.302 39.9867 29.2753 39.88C29.222 39.7733 29.2486 39.7067 29.3553 39.68L30.0753 39.44L30.6753 39.16L31.1953 39C31.1953 38.8933 31.182 38.8 31.1553 38.72L30.7953 38.84L30.1153 39.12L29.5153 39.36C29.382 39.3867 29.302 39.3467 29.2753 39.24C29.222 39.1333 29.2486 39.0533 29.3553 39L29.9953 38.8L30.6353 38.52L31.1153 38.36C31.0886 38.1733 31.062 38 31.0353 37.84L30.6353 38L29.9953 38.28L29.3553 38.56C29.2486 38.6133 29.1686 38.5867 29.1153 38.48C29.062 38.3733 29.0886 38.2933 29.1953 38.24L29.8753 37.92L30.4753 37.68C30.4753 37.68 30.4886 37.68 30.5153 37.68L30.9553 37.48C30.9286 37.32 30.902 37.1733 30.8753 37.04L30.4353 37.24L29.8753 37.48L29.2753 37.8C29.1686 37.8533 29.0886 37.8267 29.0353 37.72C28.982 37.6133 29.0086 37.5333 29.1153 37.48L29.7153 37.16L30.2753 36.92L30.7953 36.68C30.7686 36.5733 30.7286 36.4667 30.6753 36.36L30.3153 36.52L29.7553 36.72L29.0353 36.96C28.9286 36.9867 28.8486 36.9467 28.7953 36.84C28.7686 36.7333 28.8086 36.6533 28.9153 36.6L29.6353 36.4L30.1953 36.16L30.5953 36C30.5953 36 30.582 35.9867 30.5553 35.96C30.5553 35.9333 30.5553 35.92 30.5553 35.92C30.5286 35.8133 30.502 35.6933 30.4753 35.56L30.1153 35.68L29.3953 36L28.6753 36.2C28.5686 36.2267 28.502 36.1733 28.4753 36.04C28.422 35.9333 28.462 35.8667 28.5953 35.84L29.2753 35.64L29.9553 35.36L30.3953 35.2C30.3953 35.12 30.382 35.0267 30.3553 34.92L30.1553 35.04L29.4753 35.32L28.8353 35.6C28.7286 35.6533 28.6486 35.6267 28.5953 35.52C28.542 35.4133 28.5686 35.3333 28.6753 35.28L29.3553 34.96L29.9953 34.72L30.3153 34.56C30.2886 34.4267 30.2753 34.2667 30.2753 34.08L29.8753 34.24L29.2753 34.52L28.6353 34.84C28.5286 34.8933 28.4486 34.8667 28.3953 34.76C28.342 34.6533 28.3686 34.5733 28.4753 34.52L29.1153 34.2L29.7153 33.88C29.7153 33.9067 29.7286 33.9067 29.7553 33.88L30.2353 33.72C30.2086 33.64 30.1953 33.5067 30.1953 33.32L29.9153 33.4L28.5953 33.88C28.4886 33.9067 28.4086 33.8667 28.3553 33.76C28.3286 33.6533 28.3686 33.5733 28.4753 33.52L29.1553 33.28L29.7953 33.08L30.1553 32.92C30.1286 32.7333 30.102 32.5733 30.0753 32.44L29.6353 32.6L28.9953 32.84L28.3153 33.12C28.2086 33.1733 28.142 33.1467 28.1153 33.04C28.062 32.9333 28.0886 32.8533 28.1953 32.8L28.8353 32.48C28.8353 32.5067 28.8353 32.5067 28.8353 32.48C28.8353 32.48 28.8486 32.48 28.8753 32.48L29.5153 32.28L30.0353 32.08C30.0353 31.9733 30.022 31.8667 29.9953 31.76L29.7153 31.92L29.0753 32.2L28.3553 32.4C28.2486 32.4267 28.182 32.3867 28.1553 32.28C28.1286 32.1733 28.1686 32.0933 28.2753 32.04L28.9553 31.88L29.5553 31.6L29.9553 31.4C29.9553 31.3733 29.942 31.36 29.9153 31.36C29.9153 31.3333 29.9153 31.3067 29.9153 31.28C29.9153 31.1733 29.902 31.0667 29.8753 30.96L29.6753 31.04L29.0353 31.36L28.3553 31.68C28.2486 31.7067 28.1686 31.6667 28.1153 31.56C28.062 31.4533 28.0886 31.3733 28.1953 31.32L28.9153 31.04L29.5153 30.72L29.8353 30.6C29.8086 30.4933 29.782 30.36 29.7553 30.2L29.3553 30.36L28.6353 30.6L28.0753 30.84C27.9686 30.8933 27.8886 30.8667 27.8353 30.76C27.782 30.6533 27.8086 30.5733 27.9153 30.52L28.5153 30.28C28.5153 30.28 28.5153 30.2667 28.5153 30.24C28.542 30.24 28.5553 30.24 28.5553 30.24L29.2353 30.04L29.7153 29.84C29.6886 29.6533 29.662 29.4933 29.6353 29.36L29.3553 29.48L28.7153 29.68L28.0753 29.84C27.9686 29.8667 27.8886 29.8267 27.8353 29.72C27.8086 29.6133 27.8486 29.5467 27.9553 29.52L28.6353 29.32L29.2353 29.12L29.5953 29C29.5953 28.8933 29.582 28.7867 29.5553 28.68L29.2753 28.76L28.6353 29.08L27.9153 29.4C27.8086 29.4533 27.742 29.4133 27.7153 29.28C27.662 29.1733 27.6886 29.0933 27.7953 29.04L28.4753 28.76L29.1153 28.44L29.5153 28.28C29.4886 28.1733 29.4753 28.0533 29.4753 27.92L29.1153 28.08L28.4353 28.4L27.7953 28.64C27.662 28.6933 27.582 28.6667 27.5553 28.56C27.502 28.4533 27.5286 28.3733 27.6353 28.32L28.3153 28.08L28.9553 27.76L29.3953 27.56C29.3953 27.5333 29.3953 27.5067 29.3953 27.48C29.3953 27.3733 29.382 27.2533 29.3553 27.12L28.9953 27.24L28.3553 27.48L27.6753 27.68C27.542 27.7333 27.462 27.6933 27.4353 27.56C27.4086 27.4533 27.4486 27.3867 27.5553 27.36L28.2353 27.12L28.8753 26.88L29.3153 26.76C29.3153 26.6267 29.3153 26.48 29.3153 26.32L28.9553 26.48C28.9553 26.48 28.9553 26.4933 28.9553 26.52L28.2753 26.68L27.6753 26.88C27.542 26.9067 27.462 26.8667 27.4353 26.76C27.4086 26.6533 27.4486 26.5733 27.5553 26.52L28.1953 26.36L28.8353 26.16L29.2753 25.96C29.2753 25.88 29.262 25.8 29.2353 25.72C29.2353 25.64 29.2353 25.56 29.2353 25.48L28.7553 25.64L28.1153 25.96L27.4353 26.24C27.3286 26.2667 27.2486 26.2267 27.1953 26.12C27.1686 26.0133 27.2086 25.9333 27.3153 25.88L27.9553 25.64L28.6353 25.32L29.1953 25.12C29.1953 24.9867 29.182 24.8667 29.1553 24.76L28.6753 24.92L28.0353 25.12L27.3153 25.32C27.2086 25.3733 27.142 25.3333 27.1153 25.2C27.062 25.0933 27.102 25.0267 27.2353 25L27.9153 24.76L28.5953 24.56L29.1553 24.4C29.1286 24.2133 29.102 24.04 29.0753 23.88L28.4353 24.12L27.7153 24.4L27.1153 24.68C27.0086 24.7333 26.9286 24.7067 26.8753 24.6C26.822 24.4667 26.8486 24.3867 26.9553 24.36L27.5953 24.08L28.2753 23.76C28.302 23.76 28.3153 23.76 28.3153 23.76L29.0353 23.52C29.0353 23.4133 29.022 23.28 28.9953 23.12L28.4753 23.28L27.8753 23.48L27.2353 23.8C27.1286 23.8267 27.0486 23.7867 26.9953 23.68C26.942 23.5733 26.9686 23.4933 27.0753 23.44L27.7553 23.16L28.3553 22.96L28.9553 22.76C28.9286 22.6 28.9153 22.4667 28.9153 22.36L28.2753 22.6L27.7153 22.84C27.6886 22.84 27.6753 22.84 27.6753 22.84L26.9953 23C26.862 23.0533 26.782 23.0133 26.7553 22.88C26.7286 22.8 26.7553 22.7333 26.8353 22.68C26.8353 22.6267 26.8753 22.5867 26.9553 22.56L27.6353 22.32L28.1953 22.16L28.8353 21.84C28.862 21.84 28.8886 21.8267 28.9153 21.8C28.9153 21.7733 28.9286 21.7333 28.9553 21.68L28.6353 21.84L27.9153 22.08C27.8086 22.1333 27.7286 22.1067 27.6753 22C27.6486 21.8933 27.6886 21.8133 27.7953 21.76L28.4753 21.48L29.0353 21.24C29.062 21.24 29.0753 21.24 29.0753 21.24C29.0753 21.24 29.102 21.2267 29.1553 21.2C29.3153 20.9333 29.622 20.68 30.0753 20.44C30.2353 20.36 30.3686 20.32 30.4753 20.32C30.582 20.32 30.702 20.3333 30.8353 20.36C30.9686 20.36 31.0753 20.36 31.1553 20.36C31.3953 20.36 31.6353 20.36 31.8753 20.36C32.142 20.36 32.4086 20.36 32.6753 20.36C33.422 20.36 34.1553 20.3333 34.8753 20.28C35.622 20.2267 36.3686 20.2 37.1153 20.2C37.142 20.2 37.2086 20.2 37.3153 20.2C37.6353 20.2 37.9686 20.2133 38.3153 20.24C38.6886 20.2667 38.9953 20.3733 39.2353 20.56C39.5553 20.8267 39.7553 21.1467 39.8353 21.52C39.9153 21.8933 39.9686 22.2667 39.9953 22.64C40.1553 23.52 40.262 24.4133 40.3153 25.32C40.3953 26.2267 40.542 27.1067 40.7553 27.96L41.4353 27.72L41.9553 27.56C42.062 27.3467 42.182 27.1867 42.3153 27.08C42.6086 26.8133 42.9153 26.6667 43.2353 26.64C43.582 26.5867 43.942 26.56 44.3153 26.56C44.662 26.5333 45.0086 26.52 45.3553 26.52C45.702 26.52 46.0486 26.52 46.3953 26.52C46.4753 26.52 46.5553 26.52 46.6353 26.52C46.7153 26.4933 46.7953 26.48 46.8753 26.48C47.0353 26.48 47.1953 26.48 47.3553 26.48C47.542 26.48 47.7153 26.4933 47.8753 26.52C48.0353 26.5467 48.1953 26.5867 48.3553 26.64C48.5153 26.6667 48.662 26.72 48.7953 26.8C48.7686 26.6933 48.8086 26.6133 48.9153 26.56L49.5553 26.4L50.1553 26.12C50.1553 26.12 50.1686 26.1067 50.1953 26.08L50.8753 25.92L51.2353 25.76C51.262 25.6267 51.262 25.5333 51.2353 25.48L50.6353 25.76L49.9553 26.04L49.2753 26.24C49.1686 26.2933 49.0886 26.2533 49.0353 26.12C49.0086 26.0133 49.0486 25.9467 49.1553 25.92L49.8353 25.68L50.5153 25.44L51.0753 25.16L51.3153 25.04C51.342 24.8533 51.342 24.72 51.3153 24.64L50.5953 24.84L49.9153 25.08L49.1953 25.32C49.0886 25.3467 49.0086 25.3067 48.9553 25.2C48.9286 25.0667 48.9686 24.9867 49.0753 24.96L49.7953 24.72L50.4753 24.52L51.1953 24.28L51.3953 24.2C51.422 24.0933 51.422 24.0133 51.3953 23.96L50.7953 24.24C50.7953 24.24 50.7953 24.2533 50.7953 24.28C50.7686 24.28 50.7553 24.28 50.7553 24.28L50.1553 24.44L49.4353 24.64C49.3286 24.6667 49.262 24.6267 49.2353 24.52C49.2086 24.3867 49.2486 24.3067 49.3553 24.28L50.0353 24.12L50.6353 23.92L51.2353 23.64L51.4753 23.52C51.4753 23.36 51.4486 23.2533 51.3953 23.2L50.8353 23.4L50.1153 23.68C50.1153 23.7067 50.1153 23.72 50.1153 23.72L49.5153 23.88C49.382 23.9067 49.302 23.8667 49.2753 23.76C49.2486 23.6533 49.2886 23.5867 49.3953 23.56L49.9953 23.36L50.6753 23.08C50.6753 23.08 50.6886 23.0667 50.7153 23.04L51.2753 22.88L51.5553 22.76C51.5553 22.6267 51.5286 22.5333 51.4753 22.48L50.8753 22.72L50.2353 23.04C50.2086 23.04 50.1953 23.04 50.1953 23.04L49.6353 23.2C49.5286 23.2533 49.4486 23.2267 49.3953 23.12C49.3686 22.9867 49.4086 22.9067 49.5153 22.88L50.0753 22.68L50.7153 22.4C50.7153 22.4 50.7286 22.4 50.7553 22.4L51.3153 22.16L51.5953 22.04C51.622 21.9067 51.6486 21.7867 51.6753 21.68L51.1953 21.84L50.5953 22.04L49.9153 22.28C49.782 22.3333 49.702 22.3067 49.6753 22.2C49.622 22.0933 49.6486 22.0133 49.7553 21.96L50.4753 21.68L51.1153 21.52L51.7953 21.24C51.902 21 52.062 20.8133 52.2753 20.68C52.5153 20.4667 52.7953 20.36 53.1153 20.36C53.462 20.3333 53.7953 20.3333 54.1153 20.36C54.222 20.36 54.302 20.36 54.3553 20.36C55.0753 20.3867 55.7953 20.4 56.5153 20.4C57.2353 20.4 57.9553 20.36 58.6753 20.28C58.942 20.2533 59.1953 20.24 59.4353 20.24C59.6753 20.2133 59.9286 20.1867 60.1953 20.16C60.2753 20.16 60.3686 20.1467 60.4753 20.12C60.6086 20.12 60.7286 20.12 60.8353 20.12C60.9686 20.12 61.102 20.1467 61.2353 20.2C61.8486 20.52 62.2086 20.8533 62.3153 21.2C62.422 21.5467 62.4353 22.0133 62.3553 22.6C62.3286 22.7333 62.302 22.8667 62.2753 23C62.2753 23.1333 62.262 23.2667 62.2353 23.4C62.1553 23.9333 62.0886 24.48 62.0353 25.04C61.982 25.6 61.9286 26.16 61.8753 26.72C61.7686 27.3867 61.662 28.0667 61.5553 28.76C61.4753 29.4267 61.382 30.0933 61.2753 30.76C61.2753 30.76 61.262 30.7733 61.2353 30.8C61.2353 30.8267 61.2353 30.84 61.2353 30.84C60.9153 31.9067 60.742 33.0133 60.7153 34.16C60.6886 35.3067 60.5286 36.4267 60.2353 37.52C60.0753 38.2933 59.9686 39.08 59.9153 39.88C59.862 40.68 59.7553 41.48 59.5953 42.28C59.4886 43 59.3953 43.7333 59.3153 44.48C59.2353 45.2267 59.102 45.96 58.9153 46.68C58.862 46.9733 58.7953 47.2667 58.7153 47.56C58.6353 47.8533 58.4753 48.12 58.2353 48.36C57.9953 48.6533 57.7153 48.8533 57.3953 48.96C57.102 49.0667 56.7686 49.1467 56.3953 49.2ZM39.2753 48.76C39.3286 48.76 39.382 48.7733 39.4353 48.8C39.5153 48.8 39.5953 48.8 39.6753 48.8C39.782 48.8 39.8886 48.7867 39.9953 48.76C40.0753 48.7333 40.142 48.7467 40.1953 48.8C40.222 48.8 40.262 48.8 40.3153 48.8C40.3686 48.8 40.4486 48.8133 40.5553 48.84C40.582 48.84 40.6353 48.8133 40.7153 48.76C40.742 48.76 40.7686 48.76 40.7953 48.76C40.8486 48.76 40.9286 48.7467 41.0353 48.72L41.7153 48.48C41.7953 48.4533 41.862 48.48 41.9153 48.56C42.022 48.48 42.102 48.3867 42.1553 48.28C42.2353 48.1467 42.3153 48.0267 42.3953 47.92C42.4486 47.84 42.4886 47.7467 42.5153 47.64C42.542 47.5333 42.582 47.4267 42.6353 47.32C42.7686 46.92 42.9286 46.48 43.1153 46C43.3286 45.4667 43.5153 44.92 43.6753 44.36C43.862 43.7733 44.062 43.2133 44.2753 42.68C44.2486 42.6533 44.2353 42.6267 44.2353 42.6C44.2086 42.4933 44.262 42.4133 44.3953 42.36C44.4753 42.1733 44.542 42 44.5953 41.84C44.622 41.7867 44.6486 41.72 44.6753 41.64C44.6753 41.56 44.702 41.4933 44.7553 41.44C44.8353 41.28 44.902 41.12 44.9553 40.96C45.0086 40.8 45.0753 40.6267 45.1553 40.44C45.1553 40.4133 45.1686 40.36 45.1953 40.28C45.1686 40.2 45.142 40.1333 45.1153 40.08C45.0886 40.0267 45.1286 40.0133 45.2353 40.04C45.2353 39.9333 45.262 39.8267 45.3153 39.72C45.3686 39.6133 45.4753 39.5467 45.6353 39.52C45.6886 39.52 45.7553 39.5467 45.8353 39.6C45.942 39.6267 45.9953 39.6667 45.9953 39.72C46.0753 39.9333 46.1553 40.1467 46.2353 40.36C46.342 40.5467 46.4353 40.7467 46.5153 40.96C46.7286 41.52 46.9553 42.0667 47.1953 42.6C47.4353 43.1333 47.6753 43.6667 47.9153 44.2C48.1286 44.6533 48.3153 45.1067 48.4753 45.56C48.662 46.0133 48.8353 46.4667 48.9953 46.92C49.0753 47.16 49.1553 47.4 49.2353 47.64C49.342 47.88 49.502 48.08 49.7153 48.24C49.9553 48.4 50.222 48.48 50.5153 48.48C50.8353 48.48 51.142 48.4533 51.4353 48.4C51.6486 48.4 51.8086 48.3867 51.9153 48.36C52.3953 48.3333 52.862 48.3067 53.3153 48.28C53.7953 48.2533 54.262 48.24 54.7153 48.24C54.822 48.24 54.9286 48.24 55.0353 48.24C55.142 48.24 55.2353 48.24 55.3153 48.24C55.4753 48.24 55.622 48.24 55.7553 48.24C55.8886 48.24 56.022 48.24 56.1553 48.24C56.422 48.2133 56.6753 48.1733 56.9153 48.12C57.1553 48.0667 57.3686 47.9333 57.5553 47.72C57.6886 47.56 57.782 47.3733 57.8353 47.16C57.8886 46.92 57.942 46.68 57.9953 46.44C58.182 45.7467 58.302 45.0267 58.3553 44.28C58.4353 43.5333 58.542 42.8 58.6753 42.08C58.8086 41.3067 58.902 40.52 58.9553 39.72C59.0086 38.8933 59.1153 38.0933 59.2753 37.32C59.2753 37.32 59.2753 37.3067 59.2753 37.28C59.302 37.28 59.302 37.28 59.2753 37.28C59.5953 36.2133 59.7686 35.1067 59.7953 33.96C59.822 32.7867 59.9953 31.6667 60.3153 30.6C60.422 29.9333 60.5153 29.2667 60.5953 28.6C60.702 27.9333 60.8086 27.2667 60.9153 26.6C60.9686 26.04 61.022 25.48 61.0753 24.92C61.1286 24.36 61.1953 23.8 61.2753 23.24C61.302 23.1333 61.3153 23.0133 61.3153 22.88C61.342 22.7467 61.3686 22.6133 61.3953 22.48C61.3953 22.4 61.4086 22.3067 61.4353 22.2C61.4886 21.9067 61.4886 21.6933 61.4353 21.56C61.382 21.4267 61.1686 21.2667 60.7953 21.08C60.7686 21.0533 60.6486 21.0533 60.4353 21.08C60.3286 21.1067 60.262 21.12 60.2353 21.12C59.9953 21.1467 59.742 21.1733 59.4753 21.2C59.2353 21.2 58.9953 21.2133 58.7553 21.24C58.0353 21.32 57.302 21.36 56.5553 21.36C55.8086 21.36 55.062 21.3467 54.3153 21.32C54.2886 21.32 54.2086 21.3067 54.0753 21.28C53.862 21.28 53.6353 21.28 53.3953 21.28C53.1553 21.28 52.982 21.3333 52.8753 21.44C52.7153 21.5467 52.6086 21.72 52.5553 21.96C52.5286 22.1733 52.5153 22.3867 52.5153 22.6C52.5153 22.7333 52.502 22.8267 52.4753 22.88C52.422 23.6267 52.3553 24.3867 52.2753 25.16C52.1953 25.9333 52.0886 26.6933 51.9553 27.44C51.822 28.16 51.7153 28.9067 51.6353 29.68C51.582 30.4267 51.502 31.16 51.3953 31.88C51.342 32.1467 51.302 32.3733 51.2753 32.56C51.3286 32.8267 51.3153 32.9067 51.2353 32.8C51.2086 32.96 51.182 33.12 51.1553 33.28C51.1553 33.3333 51.1153 33.4 51.0353 33.48C50.9553 33.5333 50.8753 33.56 50.7953 33.56C50.5553 33.5333 50.422 33.4 50.3953 33.16C50.262 33.2133 50.2086 33.2133 50.2353 33.16C50.2353 33.0533 50.2486 32.9333 50.2753 32.8C50.2486 32.8 50.222 32.7867 50.1953 32.76C50.142 32.68 50.1553 32.5867 50.2353 32.48C50.182 32.32 50.1153 32.12 50.0353 31.88C49.982 31.7733 49.942 31.64 49.9153 31.48C49.8886 31.48 49.8753 31.4667 49.8753 31.44C49.8486 31.4133 49.8353 31.3733 49.8353 31.32C49.8086 31.2667 49.782 31.2 49.7553 31.12C49.7286 31.04 49.702 30.96 49.6753 30.88C49.5953 30.88 49.542 30.84 49.5153 30.76C49.5153 30.68 49.5286 30.6267 49.5553 30.6C49.4753 30.3333 49.382 30.08 49.2753 29.84C49.1953 29.6 49.1153 29.3467 49.0353 29.08C49.0353 29.0533 49.022 29.0267 48.9953 29C48.9686 28.9733 48.9553 28.9467 48.9553 28.92C48.9286 28.8667 48.9286 28.8133 48.9553 28.76C48.902 28.6267 48.862 28.52 48.8353 28.44C48.782 28.44 48.7286 28.4 48.6753 28.32C48.6486 28.24 48.662 28.1733 48.7153 28.12C48.6353 27.9333 48.542 27.8 48.4353 27.72C48.3286 27.64 48.2086 27.5867 48.0753 27.56C47.942 27.5067 47.822 27.4667 47.7153 27.44C47.5553 27.4133 47.4086 27.4133 47.2753 27.44C47.142 27.44 46.9953 27.44 46.8353 27.44C46.6486 27.4667 46.502 27.48 46.3953 27.48C46.0486 27.48 45.702 27.48 45.3553 27.48C45.0086 27.48 44.662 27.4933 44.3153 27.52C44.2886 27.52 44.222 27.52 44.1153 27.52C43.902 27.52 43.6886 27.5333 43.4753 27.56C43.2886 27.56 43.1153 27.64 42.9553 27.8C42.8486 27.88 42.7686 27.9867 42.7153 28.12C42.662 28.2533 42.6086 28.3867 42.5553 28.52C42.502 28.76 42.4353 29.0133 42.3553 29.28C42.2753 29.52 42.2086 29.76 42.1553 30C42.0486 30.3733 41.942 30.7467 41.8353 31.12C41.7286 31.4933 41.6086 31.8667 41.4753 32.24C41.3953 32.5333 41.3153 32.7733 41.2353 32.96C41.262 33.1467 41.2886 33.3333 41.3153 33.52C41.342 33.68 41.2753 33.7867 41.1153 33.84C40.982 33.8933 40.8353 33.92 40.6753 33.92C40.4886 33.8933 40.3286 33.84 40.1953 33.76C40.062 33.6533 40.0353 33.5333 40.1153 33.4C40.1686 33.24 40.222 33.0667 40.2753 32.88C40.2486 32.6667 40.2086 32.4267 40.1553 32.16C40.102 31.8133 40.062 31.44 40.0353 31.04C40.0353 31.0133 40.0353 31 40.0353 31C40.0353 31 40.0353 30.9867 40.0353 30.96C40.0086 30.8267 39.9953 30.68 39.9953 30.52C39.9686 30.52 39.9553 30.5067 39.9553 30.48C39.9286 30.4267 39.9286 30.3733 39.9553 30.32C39.9286 30.16 39.902 30 39.8753 29.84C39.8753 29.68 39.8753 29.52 39.8753 29.36C39.7686 29.3867 39.702 29.3467 39.6753 29.24C39.622 29.1333 39.6753 29.0533 39.8353 29C39.8086 28.7333 39.782 28.4933 39.7553 28.28C39.5686 27.3733 39.4353 26.4667 39.3553 25.56C39.302 24.6267 39.2086 23.6933 39.0753 22.76C39.0486 22.5467 39.0086 22.2933 38.9553 22C38.9286 21.7067 38.822 21.48 38.6353 21.32C38.502 21.24 38.302 21.2 38.0353 21.2C37.7953 21.1733 37.5686 21.16 37.3553 21.16C37.2486 21.16 37.1686 21.16 37.1153 21.16C36.3686 21.16 35.622 21.1867 34.8753 21.24C34.1553 21.2933 33.422 21.32 32.6753 21.32C32.4353 21.32 32.182 21.32 31.9153 21.32C31.6486 21.32 31.3953 21.32 31.1553 21.32C31.1286 21.32 31.062 21.32 30.9553 21.32C30.742 21.2667 30.6086 21.2533 30.5553 21.28C30.1553 21.4933 29.9286 21.68 29.8753 21.84C29.8486 21.9733 29.8486 22.1867 29.8753 22.48C29.902 22.6133 29.9153 22.7067 29.9153 22.76C29.9686 23.0533 29.9953 23.3067 29.9953 23.52C30.0486 23.76 30.0753 24 30.0753 24.24C30.102 24.48 30.1286 24.72 30.1553 24.96C30.1553 25.0133 30.1553 25.0533 30.1553 25.08C30.1553 25.1867 30.1553 25.2933 30.1553 25.4C30.182 25.48 30.1953 25.5733 30.1953 25.68C30.222 25.68 30.2486 25.6933 30.2753 25.72C30.302 25.8 30.2886 25.8667 30.2353 25.92C30.2353 26.1067 30.2486 26.2667 30.2753 26.4C30.302 26.4267 30.3286 26.4667 30.3553 26.52C30.4086 26.6 30.382 26.6667 30.2753 26.72C30.302 26.88 30.3286 27.0267 30.3553 27.16C30.4086 27.1867 30.4486 27.2267 30.4753 27.28C30.5286 27.3867 30.502 27.4667 30.3953 27.52C30.3953 27.6533 30.4086 27.7867 30.4353 27.92C30.5153 27.92 30.5686 27.96 30.5953 28.04C30.6486 28.1733 30.6086 28.2533 30.4753 28.28C30.502 28.4133 30.5153 28.56 30.5153 28.72C30.622 28.6933 30.6886 28.7333 30.7153 28.84C30.742 28.9467 30.702 29.0267 30.5953 29.08C30.5953 29.2133 30.6086 29.3467 30.6353 29.48C30.7153 29.48 30.782 29.52 30.8353 29.6C30.862 29.7067 30.8086 29.7867 30.6753 29.84C30.702 29.92 30.7153 30 30.7153 30.08C30.7153 30.1333 30.7286 30.1867 30.7553 30.24C30.8353 30.24 30.8886 30.28 30.9153 30.36C30.9686 30.4667 30.9286 30.5467 30.7953 30.6C30.822 30.76 30.8486 30.9067 30.8753 31.04C30.9553 31.0133 31.0086 31.0533 31.0353 31.16C31.0886 31.2667 31.0486 31.3467 30.9153 31.4C30.942 31.5333 30.9553 31.6667 30.9553 31.8C31.062 31.7733 31.1286 31.8133 31.1553 31.92C31.182 32.0533 31.1286 32.1333 30.9953 32.16C31.022 32.2933 31.0486 32.4267 31.0753 32.56C31.1553 32.56 31.222 32.6 31.2753 32.68C31.302 32.7867 31.2486 32.88 31.1153 32.96C31.1153 33.0133 31.1153 33.08 31.1153 33.16C31.1153 33.2133 31.1286 33.28 31.1553 33.36C31.262 33.3067 31.3286 33.3333 31.3553 33.44C31.4086 33.5467 31.3553 33.64 31.1953 33.72C31.1953 33.9067 31.2086 34.04 31.2353 34.12C31.342 34.0667 31.422 34.1067 31.4753 34.24C31.5286 34.3467 31.462 34.44 31.2753 34.52C31.302 34.68 31.342 34.8 31.3953 34.88C31.502 34.8533 31.5686 34.9067 31.5953 35.04C31.6486 35.1467 31.582 35.2267 31.3953 35.28C31.422 35.4133 31.4486 35.5467 31.4753 35.68C31.582 35.6267 31.662 35.6667 31.7153 35.8C31.742 35.9067 31.702 35.9733 31.5953 36C31.622 36.1333 31.662 36.28 31.7153 36.44C31.7686 36.44 31.8086 36.48 31.8353 36.56C31.862 36.64 31.8486 36.7067 31.7953 36.76C31.822 36.92 31.8486 37.08 31.8753 37.24C31.902 37.2667 31.9153 37.2933 31.9153 37.32C31.942 37.3733 31.942 37.4267 31.9153 37.48C31.942 37.6667 31.982 37.8533 32.0353 38.04C32.0353 38.0667 32.0353 38.08 32.0353 38.08C32.062 38.1333 32.062 38.1867 32.0353 38.24C32.062 38.3733 32.0886 38.56 32.1153 38.8C32.142 38.8267 32.1553 38.8533 32.1553 38.88C32.182 38.9333 32.182 38.9867 32.1553 39.04C32.182 39.2533 32.2086 39.4267 32.2353 39.56C32.262 39.5867 32.2753 39.6133 32.2753 39.64C32.302 39.6933 32.2886 39.7467 32.2353 39.8C32.2886 39.9867 32.3286 40.16 32.3553 40.32C32.3553 40.3467 32.3686 40.3867 32.3953 40.44C32.3953 40.4933 32.382 40.5333 32.3553 40.56C32.4353 40.9333 32.5153 41.3067 32.5953 41.68C32.702 42.0267 32.822 42.36 32.9553 42.68C32.9553 42.68 32.9553 42.6933 32.9553 42.72C32.9553 42.7467 32.9553 42.76 32.9553 42.76C33.0886 43.2933 33.2086 43.8267 33.3153 44.36C33.4486 44.8667 33.5553 45.3867 33.6353 45.92C33.7153 46.32 33.7686 46.7333 33.7953 47.16C33.8486 47.5867 33.9953 47.96 34.2353 48.28C34.342 48.4667 34.5286 48.56 34.7953 48.56C34.822 48.5333 34.862 48.52 34.9153 48.52C34.9686 48.4933 35.0086 48.48 35.0353 48.48C35.7286 48.56 36.4353 48.6267 37.1553 48.68C37.8753 48.7067 38.582 48.7333 39.2753 48.76ZM50.9953 26.24L50.3153 26.44L49.6753 26.72L48.9953 26.92C49.022 26.9467 49.0486 26.9733 49.0753 27C49.1286 27.0267 49.182 27.0667 49.2353 27.12C49.2886 27.1733 49.3553 27.2133 49.4353 27.24L50.0753 26.92L50.7953 26.64L51.1553 26.52C51.1553 26.36 51.102 26.2667 50.9953 26.24ZM49.5153 27.6C49.542 27.6533 49.5686 27.6933 49.5953 27.72L50.0353 27.56L50.7553 27.32L51.0353 27.24C51.062 27.1067 51.022 27.0267 50.9153 27L50.2353 27.24L49.5153 27.6ZM49.7153 28.08C49.742 28.1333 49.7686 28.2133 49.7953 28.32L50.1553 28.24L50.7153 28.08L50.9153 28C50.942 27.84 50.9286 27.7333 50.8753 27.68L50.1553 27.88L49.7153 28.08ZM40.7553 28.64L40.9953 28.52L41.6353 28.36C41.6353 28.3067 41.6486 28.2667 41.6753 28.24C41.6753 28.24 41.6753 28.2267 41.6753 28.2C41.6753 28.1733 41.6753 28.16 41.6753 28.16C41.6753 28.16 41.6753 28.1467 41.6753 28.12L41.0753 28.4C40.9686 28.4533 40.8886 28.4267 40.8353 28.32C40.8353 28.32 40.7953 28.3333 40.7153 28.36C40.7153 28.44 40.7286 28.5333 40.7553 28.64ZM49.9153 28.68C49.942 28.7067 49.9553 28.7467 49.9553 28.8C49.982 28.88 50.0086 28.96 50.0353 29.04L50.3153 28.96L50.7153 28.76C50.7153 28.76 50.7286 28.7467 50.7553 28.72C50.7553 28.72 50.7686 28.72 50.7953 28.72C50.822 28.5867 50.8353 28.4933 50.8353 28.44C50.8086 28.44 50.7953 28.44 50.7953 28.44L50.2353 28.56L49.9153 28.68ZM41.5153 28.76L41.1153 28.88L40.7953 29C40.7953 29.0533 40.7953 29.1333 40.7953 29.24L41.0353 29.12L41.4353 29.04C41.462 28.9333 41.4886 28.84 41.5153 28.76ZM50.1553 29.4C50.2086 29.56 50.262 29.6667 50.3153 29.72L50.6753 29.56C50.6753 29.56 50.6753 29.5467 50.6753 29.52C50.6753 29.52 50.6886 29.52 50.7153 29.52C50.7153 29.4667 50.7153 29.4133 50.7153 29.36C50.742 29.28 50.7553 29.2 50.7553 29.12L50.4753 29.32C50.4486 29.32 50.4353 29.32 50.4353 29.32L50.1553 29.4ZM40.8353 29.6C40.862 29.7333 40.8886 29.84 40.9153 29.92L41.1953 29.84C41.222 29.8133 41.2353 29.7867 41.2353 29.76C41.262 29.6267 41.2353 29.5333 41.1553 29.48L40.8353 29.6ZM50.3953 30.08C50.4486 30.2133 50.5286 30.28 50.6353 30.28C50.662 30.12 50.582 30.0533 50.3953 30.08ZM45.4353 42.32C45.382 42.48 45.3153 42.64 45.2353 42.8L45.4753 42.72L46.1153 42.48C46.0353 42.32 45.9686 42.1867 45.9153 42.08L45.4353 42.32ZM45.0753 43.24C45.022 43.4 44.9953 43.52 44.9953 43.6C45.022 43.6 45.0353 43.6 45.0353 43.6L45.7153 43.32L46.3953 43.12C46.342 43.0133 46.2886 42.9067 46.2353 42.8L45.5953 43.04L45.0753 43.24Z" fill="#DFD5EC"/>
</svg>
