<svg width="45" height="42" viewBox="0 0 45 42" fill="none" xmlns="http://www.w3.org/2000/svg">
<path d="M28.3027 9.87695C28.7062 9.91789 29.0316 10.0936 29.2939 10.2812C29.5704 10.479 29.8683 10.7596 30.1719 11.043L32.8662 13.5566L33.3662 14.0312C33.523 14.1856 33.6667 14.3358 33.7852 14.4814C34.0405 14.7954 34.2842 15.2089 34.2842 15.75C34.2842 16.2911 34.0405 16.7046 33.7852 17.0186C33.6667 17.1642 33.523 17.3144 33.3662 17.4688L32.8662 17.9434L17.9473 31.8672C17.7906 32.0134 17.5869 32.214 17.3291 32.3516C17.2002 32.4203 17.0658 32.4692 16.9375 32.5068L16.582 32.5947L10.415 34.0342C10.2664 34.0689 10.0433 34.1237 9.84863 34.1396C9.66751 34.1545 9.29838 34.1563 8.96582 33.9053L8.82617 33.7812C8.46341 33.4065 8.47733 32.9546 8.50098 32.748C8.52324 32.554 8.58551 32.333 8.625 32.1855L10.1357 26.5449L10.2432 26.168C10.2884 26.032 10.3462 25.8901 10.4268 25.7559L10.5586 25.5664C10.6992 25.3888 10.8604 25.2454 10.9863 25.1279L26.0781 11.043L26.5273 10.6299C26.6742 10.4997 26.8178 10.3801 26.9561 10.2812C27.2559 10.0668 27.6381 9.86816 28.125 9.86816L28.3027 9.87695Z" stroke="#D7E3F7" stroke-width="2"/>
<path d="M23.4375 13.125L29.0625 9.625L34.6875 14.875L30.9375 20.125L23.4375 13.125Z" fill="#D7E3F7"/>
</svg>
