<svg width="45" height="42" viewBox="0 0 45 42" fill="none" xmlns="http://www.w3.org/2000/svg">
<path d="M9.375 22.3293C9.375 19.9533 9.375 18.7652 9.88961 17.7209C10.4042 16.6766 11.3707 15.9035 13.3036 14.3571L15.1786 12.8571C18.6723 10.0622 20.4192 8.66467 22.5 8.66467C24.5808 8.66467 26.3277 10.0622 29.8214 12.8571L31.6964 14.3571C33.6293 15.9035 34.5958 16.6766 35.1104 17.7209C35.625 18.7652 35.625 19.9533 35.625 22.3293V29.75C35.625 33.0498 35.625 34.6998 34.5266 35.7249C33.4283 36.75 31.6605 36.75 28.125 36.75H16.875C13.3395 36.75 11.5717 36.75 10.4733 35.7249C9.375 34.6998 9.375 33.0498 9.375 29.75V22.3293Z" stroke="#D7E3F7" stroke-width="2"/>
<path d="M27.1875 36.75V27.25C27.1875 26.6977 26.7398 26.25 26.1875 26.25H18.8125C18.2602 26.25 17.8125 26.6977 17.8125 27.25V36.75" stroke="#D7E3F7" stroke-width="2" stroke-linecap="round" stroke-linejoin="round"/>
</svg>
