<svg width="64" height="64" viewBox="0 0 64 64" fill="none" xmlns="http://www.w3.org/2000/svg">
<circle cx="32" cy="32" r="32" fill="white"/>
<path d="M48.4 20.632C47.76 20.632 47.648 20.296 47.648 19.848C47.648 18.936 48.016 17.944 49.648 16.52C50.08 16.152 50.688 15.384 50.64 14.6C50.576 13.56 49.744 13.016 48.624 13.176C47.28 13.368 46.672 14.36 46.784 15.368C46.864 16.056 46.64 16.136 46.096 16.264C45.632 16.376 45.28 16.216 45.136 15.592C44.8 14.104 45.936 11.944 48.448 11.736C50.896 11.528 52.288 12.776 52.288 14.776C52.288 16.248 51.04 17.352 49.952 18.344C49.456 18.808 49.168 19.336 49.168 19.784C49.168 20.232 49.088 20.632 48.4 20.632ZM49.488 23.064C49.488 23.656 49.024 24.12 48.416 24.12C47.824 24.12 47.36 23.656 47.36 23.064C47.36 22.456 47.824 21.992 48.416 21.992C49.024 21.992 49.488 22.456 49.488 23.064Z" fill="#DFD5EC"/>
<path d="M44 19.664V45.2H37.664V43.6H31.744V38.576H37.664V19.664H44ZM16.96 37.264V32.144H35.776V37.264H28.864V45.136H22.24V37.264H16.96ZM17.632 30.576V20.112H34.88V30.576H17.632ZM22.912 26.8L29.824 24.624V23.344L22.912 25.52V26.8Z" fill="#DFD5EC"/>
</svg>
