<svg width="73" height="69" viewBox="0 0 73 69" fill="none" xmlns="http://www.w3.org/2000/svg">
<path d="M56 17.328V68.4H43.328V65.2H31.488V55.152H43.328V17.328H56ZM1.92 52.528V42.288H39.552V52.528H25.728V68.272H12.48V52.528H1.92ZM3.264 39.152V18.224H37.76V39.152H3.264ZM13.824 31.6L27.648 27.248V24.688L13.824 29.04V31.6Z" fill="#DFD5EC"/>
<path d="M64.8 18.264C63.52 18.264 63.296 17.592 63.296 16.696C63.296 14.872 64.032 12.888 67.296 10.04C68.16 9.304 69.376 7.768 69.28 6.2C69.152 4.12 67.488 3.032 65.248 3.352C62.56 3.736 61.344 5.72 61.568 7.736C61.728 9.112 61.28 9.272 60.192 9.528C59.264 9.752 58.56 9.432 58.272 8.184C57.6 5.208 59.872 0.887999 64.896 0.471998C69.792 0.0559998 72.576 2.552 72.576 6.552C72.576 9.496 70.08 11.704 67.904 13.688C66.912 14.616 66.336 15.672 66.336 16.568C66.336 17.464 66.176 18.264 64.8 18.264ZM66.976 23.128C66.976 24.312 66.048 25.24 64.832 25.24C63.648 25.24 62.72 24.312 62.72 23.128C62.72 21.912 63.648 20.984 64.832 20.984C66.048 20.984 66.976 21.912 66.976 23.128Z" fill="#DFD5EC"/>
</svg>
